<svg width="279" height="52" viewBox="0 0 279 52" fill="none" xmlns="http://www.w3.org/2000/svg">
<path fill-rule="evenodd" clip-rule="evenodd" d="M13.9243 3.83707L15.5614 26.4469L60.1717 26.584L62.3546 3.83707L48.8486 15.4845L38.3441 0L27.7031 15.4845L13.9243 3.83707Z" fill="#B38D68"/>
<path fill-rule="evenodd" clip-rule="evenodd" d="M71.7242 12.0767H71.7239C68.9183 12.0767 66.5088 14.3821 66.3694 17.2005L65.5926 31.1478L10.7968 31.2136V31.2168L10.2086 17.2005C10.0907 14.3812 7.65961 12.0767 4.85398 12.0767H4.85369C2.04806 12.0767 -0.133117 14.3821 0.00633144 17.2005L1.7221 51.8753H11.9243L11.7062 47.4663H64.872L64.6536 51.8753H74.8558L76.5716 17.2005C76.711 14.3821 74.5299 12.0767 71.7242 12.0767Z" fill="#B38D68"/>
<path d="M47.5205 37.7661H28.2088C20.9666 37.7661 15.0957 38.4723 15.0957 39.3434C15.0957 40.2146 20.9666 40.9207 28.2088 40.9207H47.5205C54.7626 40.9207 60.6336 40.2146 60.6336 39.3434C60.6336 38.4723 54.7626 37.7661 47.5205 37.7661Z" fill="#1D2B38"/>
<path d="M109.857 9.42383C109.934 9.42383 109.974 9.46406 109.974 9.54099V10.1679C109.974 10.249 109.934 10.2895 109.857 10.2895L107.803 10.4915C107.715 10.4915 107.674 10.5279 107.674 10.609V24.5683C107.674 24.6491 107.715 24.6855 107.803 24.6855L109.857 24.8758C109.934 24.8758 109.974 24.9201 109.974 25.0053V25.6363C109.974 25.7129 109.934 25.7535 109.857 25.7535H103.518C103.442 25.7535 103.402 25.7129 103.402 25.6363V25.0053C103.402 24.9201 103.442 24.8758 103.518 24.8758L105.456 24.6855C105.532 24.6855 105.572 24.6491 105.572 24.5683V10.6574C105.572 10.5767 105.532 10.5362 105.456 10.5362H98.2592C98.2267 10.5362 98.1987 10.5403 98.1744 10.5482C98.1504 10.5564 98.1382 10.5767 98.1382 10.609V24.5683C98.1382 24.6491 98.1785 24.6855 98.2592 24.6855L100.192 24.8758C100.273 24.8758 100.309 24.9201 100.309 25.0053V25.6363C100.309 25.7129 100.273 25.7535 100.192 25.7535H93.8574C93.777 25.7535 93.7407 25.7129 93.7407 25.6363V25.0053C93.7407 24.9201 93.777 24.8758 93.8574 24.8758L95.9114 24.6855C95.9877 24.6855 96.028 24.6491 96.028 24.5683V10.609C96.028 10.5279 95.9877 10.4915 95.9114 10.4915L93.8574 10.2895C93.777 10.2895 93.7407 10.249 93.7407 10.1679V9.54099C93.7407 9.46406 93.777 9.42383 93.8574 9.42383H109.857Z" fill="white"/>
<path d="M123.529 9.42383C123.609 9.42383 123.646 9.46406 123.646 9.54099V13.3475C123.646 13.4324 123.609 13.4767 123.529 13.4767H122.631C122.554 13.4767 122.514 13.4444 122.514 13.3798L122.031 10.6331C122.031 10.5685 121.99 10.5362 121.914 10.5362H116.381C116.3 10.5362 116.26 10.5767 116.26 10.6574V16.6522C116.26 16.7291 116.3 16.7694 116.381 16.7694H119.707C119.792 16.7694 119.836 16.7371 119.836 16.6766L120.073 14.7106C120.073 14.6457 120.114 14.6134 120.19 14.6134H120.851C120.931 14.6134 120.968 14.654 120.968 14.7309V20.0054C120.968 20.0864 120.931 20.1228 120.851 20.1228H120.19C120.114 20.1228 120.073 20.0946 120.073 20.0297L119.836 17.9425C119.836 17.8738 119.792 17.8374 119.707 17.8374H116.381C116.3 17.8374 116.26 17.882 116.26 17.9669V24.5199C116.26 24.6006 116.3 24.6411 116.381 24.6411H122.244C122.329 24.6411 122.373 24.6088 122.373 24.5439L122.856 21.8418C122.856 21.7813 122.897 21.749 122.973 21.749H123.871C123.952 21.749 123.988 21.7854 123.988 21.8662V25.6363C123.988 25.7129 123.952 25.7535 123.871 25.7535H111.979C111.899 25.7535 111.862 25.7129 111.862 25.6363V25.0053C111.862 24.9201 111.899 24.8758 111.979 24.8758L114.033 24.6855C114.109 24.6855 114.15 24.6491 114.15 24.5683V10.5602C114.117 10.5118 114.077 10.4915 114.033 10.4915L111.979 10.2895C111.899 10.2895 111.862 10.249 111.862 10.1679V9.54099C111.862 9.46406 111.899 9.42383 111.979 9.42383H123.529Z" fill="white"/>
<path d="M130.536 10.5362C130.459 10.5362 130.419 10.5767 130.419 10.6574V17.5543C130.419 17.6309 130.459 17.6715 130.536 17.6715H131.941C134.788 17.6715 136.214 16.4176 136.214 13.9137C136.214 12.6962 135.767 11.8144 134.881 11.2603C134.108 10.7787 133.053 10.5362 131.716 10.5362H130.536ZM132.131 9.42383C133.673 9.42383 134.837 9.55714 135.622 9.82407C137.611 10.5039 138.606 11.9154 138.606 14.0552C138.606 15.4873 137.97 16.6563 136.697 17.5663C135.562 18.3633 134.249 18.7759 132.755 18.8082L130.419 18.3956V24.5683C130.419 24.6411 130.459 24.6775 130.536 24.6855L132.827 24.8758C132.912 24.8837 132.956 24.9283 132.956 25.0053V25.6363C132.956 25.7129 132.912 25.7535 132.827 25.7535H126.09C126.009 25.7535 125.973 25.7129 125.973 25.6363V25.0053C125.973 24.9201 126.009 24.8758 126.09 24.8758L128.144 24.6855C128.22 24.6855 128.26 24.6491 128.26 24.5683V10.609C128.26 10.5279 128.22 10.4915 128.144 10.4915L126.09 10.2895C126.009 10.2895 125.973 10.249 125.973 10.1679V9.54099C125.973 9.46406 126.009 9.42383 126.09 9.42383H132.131Z" fill="white"/>
<path d="M151.892 9.42383C151.972 9.42383 152.008 9.46406 152.008 9.54099V13.3475C152.008 13.4324 151.972 13.4767 151.892 13.4767H150.994C150.917 13.4767 150.877 13.4444 150.877 13.3798L150.393 10.6331C150.393 10.5685 150.353 10.5362 150.277 10.5362H144.744C144.663 10.5362 144.623 10.5767 144.623 10.6574V16.6522C144.623 16.7291 144.663 16.7694 144.744 16.7694H148.07C148.154 16.7694 148.199 16.7371 148.199 16.6766L148.436 14.7106C148.436 14.6457 148.477 14.6134 148.553 14.6134H149.214C149.294 14.6134 149.33 14.654 149.33 14.7309V20.0054C149.33 20.0864 149.294 20.1228 149.214 20.1228H148.553C148.477 20.1228 148.436 20.0946 148.436 20.0297L148.199 17.9425C148.199 17.8738 148.154 17.8374 148.07 17.8374H144.744C144.663 17.8374 144.623 17.882 144.623 17.9669V24.5199C144.623 24.6006 144.663 24.6411 144.744 24.6411H150.607C150.692 24.6411 150.736 24.6088 150.736 24.5439L151.219 21.8418C151.219 21.7813 151.259 21.749 151.336 21.749H152.234C152.314 21.749 152.351 21.7854 152.351 21.8662V25.6363C152.351 25.7129 152.314 25.7535 152.234 25.7535H140.342C140.261 25.7535 140.225 25.7129 140.225 25.6363V25.0053C140.225 24.9201 140.261 24.8758 140.342 24.8758L142.396 24.6855C142.472 24.6855 142.512 24.6491 142.512 24.5683V10.5602C142.48 10.5118 142.44 10.4915 142.396 10.4915L140.342 10.2895C140.261 10.2895 140.225 10.249 140.225 10.1679V9.54099C140.225 9.46406 140.261 9.42383 140.342 9.42383H151.892Z" fill="white"/>
<path d="M167.408 9.42383C167.484 9.42383 167.525 9.46406 167.525 9.54099V13.3475C167.525 13.4324 167.484 13.4767 167.408 13.4767H166.51C166.433 13.4767 166.393 13.4444 166.393 13.3798L165.91 10.6331C165.91 10.5685 165.869 10.5362 165.789 10.5362H161.874C161.81 10.5362 161.778 10.5767 161.778 10.6574V24.5683C161.778 24.6411 161.818 24.6775 161.899 24.6855L164.186 24.8758C164.27 24.8837 164.315 24.9283 164.315 25.0053V25.6363C164.315 25.7129 164.27 25.7535 164.186 25.7535H157.259C157.175 25.7535 157.131 25.7129 157.131 25.6363V25.0053C157.131 24.9283 157.175 24.8837 157.259 24.8758L159.551 24.6855C159.627 24.6775 159.668 24.6411 159.668 24.5683V10.6574C159.668 10.5767 159.635 10.5362 159.571 10.5362H155.657C155.576 10.5362 155.54 10.5685 155.54 10.6331L155.053 13.3798C155.053 13.4444 155.016 13.4767 154.936 13.4767H154.038C153.961 13.4767 153.921 13.4324 153.921 13.3475V9.54099C153.921 9.46406 153.961 9.42383 154.038 9.42383H167.408Z" fill="white"/>
<path d="M173.082 13.667C173.082 14.2819 173.207 14.8075 173.461 15.2486C173.71 15.6855 174.036 16.0414 174.439 16.3125C174.838 16.5873 175.293 16.7937 175.8 16.9312C176.308 17.0689 176.827 17.1376 177.363 17.1376H178.45C178.511 17.1376 178.543 17.0971 178.543 17.0201V10.6574C178.543 10.5767 178.502 10.5362 178.426 10.5362H177.552C176.94 10.5362 176.364 10.5726 175.825 10.6454C175.285 10.7141 174.809 10.8639 174.395 11.0944C173.984 11.3249 173.662 11.6403 173.428 12.0408C173.199 12.4454 173.082 12.9875 173.082 13.667ZM182.872 9.42383C182.952 9.42383 182.992 9.46406 182.992 9.54099V10.1679C182.992 10.249 182.952 10.2895 182.872 10.2895L180.81 10.4915C180.729 10.4915 180.689 10.5279 180.689 10.609V24.5683C180.689 24.6491 180.729 24.6855 180.81 24.6855L182.872 24.8758C182.952 24.8758 182.992 24.9201 182.992 25.0053V25.6363C182.992 25.7129 182.952 25.7535 182.872 25.7535H176.127C176.046 25.7535 176.005 25.7129 176.005 25.6363V25.0053C176.005 24.9201 176.046 24.8758 176.127 24.8758L178.426 24.6855C178.502 24.6855 178.543 24.6491 178.543 24.5683V18.2297C178.543 18.1974 178.531 18.173 178.506 18.1569C178.486 18.1407 178.458 18.1328 178.426 18.1328H178.035C177.665 18.1328 177.318 18.173 176.988 18.2499C176.654 18.331 176.332 18.4846 176.018 18.7151C175.703 18.9418 175.394 19.2654 175.088 19.6738C174.781 20.0864 174.471 20.6202 174.165 21.2877L172.091 25.6604C172.059 25.7212 172.003 25.7535 171.926 25.7535H168.124C168.048 25.7535 168.008 25.7129 168.008 25.6363V25.0053C168.008 24.9201 168.048 24.8758 168.124 24.8758L169.897 24.6855C169.973 24.6855 170.029 24.6532 170.062 24.5927L172.184 20.5879C172.365 20.2643 172.542 19.9528 172.72 19.6618C172.897 19.3705 173.086 19.1115 173.287 18.8851C173.489 18.6625 173.722 18.4602 173.988 18.2822C174.258 18.1043 174.56 17.9545 174.898 17.8374C174.254 17.7281 173.67 17.5502 173.146 17.3114C172.623 17.0689 172.18 16.7614 171.814 16.3853C171.447 16.0091 171.165 15.5924 170.964 15.1352C170.762 14.6783 170.662 14.1806 170.662 13.6426C170.662 13.0116 170.799 12.417 171.077 11.8587C171.35 11.3005 171.781 10.8151 172.361 10.3946C172.905 9.9982 173.573 9.7392 174.375 9.61382C175.172 9.48432 176.086 9.42383 177.117 9.42383H182.872Z" fill="white"/>
<path d="M198.823 9.42487C198.904 9.42487 198.94 9.4651 198.94 9.54204V10.169C198.94 10.25 198.904 10.2905 198.823 10.2905L196.77 10.4926C196.685 10.4926 196.641 10.529 196.641 10.61V16.7017C196.641 16.7786 196.677 16.8192 196.745 16.8192C197.196 16.8192 197.603 16.7584 197.974 16.6412C198.344 16.5238 198.682 16.3417 198.988 16.095C199.295 15.8522 199.568 15.5571 199.81 15.2173C200.048 14.8814 200.281 14.485 200.511 14.036L201.691 11.5808C201.92 11.1318 202.15 10.7433 202.379 10.4197C202.613 10.0961 202.854 9.83333 203.104 9.63101C203.358 9.42869 203.616 9.28333 203.885 9.19407C204.151 9.10127 204.429 9.05664 204.711 9.05664C204.828 9.05664 204.965 9.06868 205.118 9.09305C205.271 9.11742 205.428 9.15384 205.589 9.21051C205.75 9.26689 205.899 9.3359 206.032 9.41665C206.165 9.50151 206.277 9.59049 206.362 9.68357C206.378 9.69972 206.394 9.73614 206.41 9.79692C206.427 9.85771 206.418 9.89412 206.386 9.91027L205.194 11.5324C205.13 11.6131 205.077 11.6375 205.029 11.6049C204.888 11.4472 204.727 11.3177 204.55 11.2208C204.373 11.1195 204.195 11.0711 204.014 11.0711C203.757 11.0711 203.495 11.1682 203.229 11.3623C202.967 11.5564 202.721 11.9123 202.492 12.4342L201.892 13.7368C201.711 14.0927 201.513 14.4527 201.308 14.8168C201.099 15.1809 200.877 15.5166 200.647 15.824C200.414 16.1314 200.177 16.3984 199.931 16.6289C199.689 16.8594 199.452 17.0212 199.226 17.1143C199.548 17.2115 199.854 17.3286 200.144 17.4784C200.434 17.624 200.728 17.8223 201.018 18.0771C201.308 18.3279 201.586 18.6313 201.848 18.9872C202.113 19.3431 202.383 19.768 202.657 20.2695L204.912 24.5937C204.957 24.6542 205.013 24.6865 205.077 24.6865L206.845 24.8768C206.926 24.8768 206.962 24.9211 206.962 25.0063V25.6373C206.962 25.714 206.926 25.7545 206.845 25.7545H203.048C202.983 25.7545 202.931 25.7222 202.882 25.6614L200.676 20.9775C200.338 20.2613 199.991 19.691 199.637 19.2702C199.282 18.8538 198.94 18.5302 198.61 18.3077C198.28 18.0813 197.957 17.9356 197.643 17.8666C197.329 17.802 197.039 17.7656 196.77 17.7656C196.685 17.7656 196.641 17.8061 196.641 17.8869V24.5694C196.641 24.6501 196.685 24.6865 196.77 24.6865L198.823 24.8768C198.904 24.8768 198.94 24.9211 198.94 25.0063V25.6373C198.94 25.714 198.904 25.7545 198.823 25.7545H192.392C192.315 25.7545 192.275 25.714 192.275 25.6373V25.0063C192.275 24.9211 192.315 24.8768 192.392 24.8768L194.446 24.6865C194.526 24.6865 194.563 24.6501 194.563 24.5694V17.8869C194.563 17.8061 194.526 17.7656 194.446 17.7656C194.172 17.7656 193.874 17.802 193.56 17.8666C193.246 17.9356 192.92 18.0813 192.581 18.3077C192.243 18.5302 191.901 18.8538 191.554 19.2702C191.208 19.691 190.866 20.2613 190.527 20.9775L188.333 25.6614C188.304 25.7222 188.244 25.7545 188.159 25.7545H184.37C184.293 25.7545 184.253 25.714 184.253 25.6373V25.0063C184.253 24.9211 184.293 24.8768 184.37 24.8768L186.13 24.6865C186.214 24.6865 186.275 24.6542 186.307 24.5937L188.546 20.2695C188.808 19.768 189.078 19.3431 189.36 18.9872C189.645 18.6313 189.923 18.3279 190.193 18.0771C190.463 17.8223 190.749 17.624 191.047 17.4784C191.349 17.3286 191.659 17.2115 191.981 17.1143C191.752 17.0212 191.518 16.8594 191.276 16.6289C191.039 16.3984 190.801 16.1314 190.572 15.824C190.338 15.5166 190.113 15.1809 189.891 14.8168C189.674 14.4527 189.484 14.0927 189.327 13.7368L188.723 12.4342C188.498 11.9285 188.244 11.5767 187.97 11.3744C187.693 11.1724 187.439 11.0711 187.201 11.0711C187.02 11.0711 186.843 11.1195 186.666 11.2208C186.488 11.3177 186.327 11.4472 186.186 11.6049C186.118 11.6213 186.057 11.597 186.009 11.5324L184.829 9.91027C184.817 9.89412 184.813 9.85771 184.817 9.79692C184.825 9.73614 184.837 9.69972 184.853 9.68357C184.934 9.59049 185.042 9.50151 185.18 9.41665C185.316 9.3359 185.465 9.26689 185.627 9.21051C185.788 9.15384 185.945 9.11742 186.098 9.09305C186.251 9.06868 186.384 9.05664 186.492 9.05664C186.786 9.05664 187.064 9.10127 187.334 9.19407C187.6 9.28333 187.854 9.42869 188.091 9.63101C188.333 9.83333 188.574 10.0961 188.82 10.4197C189.062 10.7433 189.295 11.1318 189.513 11.5808L190.705 14.036C190.91 14.485 191.144 14.8814 191.401 15.2173C191.663 15.5571 191.941 15.8522 192.235 16.095C192.529 16.3417 192.863 16.5238 193.238 16.6412C193.612 16.7584 194.023 16.8192 194.47 16.8192C194.535 16.8192 194.563 16.7786 194.563 16.7017V10.61C194.563 10.529 194.526 10.4926 194.446 10.4926L192.392 10.2905C192.315 10.2905 192.275 10.25 192.275 10.169V9.54204C192.275 9.4651 192.315 9.42487 192.392 9.42487H198.823Z" fill="white"/>
<path d="M214.843 9.42487C214.924 9.42487 214.964 9.4651 214.964 9.54204V10.169C214.964 10.25 214.924 10.2905 214.843 10.2905L212.789 10.4926C212.713 10.4926 212.673 10.529 212.673 10.61V16.7017C212.673 16.7786 212.705 16.8192 212.769 16.8192C213.281 16.8192 213.732 16.7584 214.13 16.6412C214.529 16.5238 214.887 16.3458 215.21 16.1071C215.532 15.8725 215.818 15.5773 216.063 15.2294C216.313 14.8814 216.55 14.485 216.78 14.036L217.96 11.5808C218.186 11.1318 218.415 10.7433 218.649 10.4197C218.882 10.0961 219.124 9.83333 219.374 9.63101C219.627 9.42869 219.885 9.28333 220.147 9.19407C220.413 9.10127 220.686 9.05664 220.98 9.05664C221.089 9.05664 221.222 9.06868 221.375 9.09305C221.528 9.11742 221.681 9.15384 221.834 9.21051C221.987 9.26689 222.132 9.3359 222.269 9.41665C222.41 9.50151 222.523 9.59049 222.619 9.68357C222.635 9.69972 222.652 9.73614 222.672 9.79692C222.692 9.85771 222.684 9.89412 222.644 9.91027L221.464 11.5324C221.431 11.5808 221.399 11.6131 221.367 11.6293C221.339 11.6454 221.307 11.6454 221.274 11.6293C221.125 11.4716 220.964 11.338 220.795 11.2328C220.626 11.1236 220.457 11.0711 220.284 11.0711C220.038 11.0711 219.78 11.1682 219.502 11.3623C219.229 11.5564 218.983 11.9123 218.761 12.4342L218.161 13.7368C217.98 14.1088 217.783 14.477 217.573 14.845C217.368 15.2132 217.147 15.5489 216.909 15.8522C216.671 16.1558 216.434 16.4186 216.196 16.6412C215.954 16.8635 215.721 17.0212 215.491 17.1143C215.813 17.2115 216.128 17.3286 216.426 17.4784C216.724 17.624 217.014 17.8223 217.299 18.0771C217.582 18.3279 217.855 18.6313 218.117 18.9872C218.383 19.3431 218.653 19.768 218.926 20.2695L221.182 24.5937C221.226 24.6542 221.282 24.6865 221.343 24.6865L223.103 24.8768C223.187 24.8768 223.231 24.9211 223.231 25.0063V25.6373C223.231 25.714 223.187 25.7545 223.103 25.7545H219.317C219.253 25.7545 219.192 25.7222 219.14 25.6614L216.945 20.9775C216.607 20.2613 216.26 19.691 215.906 19.2702C215.552 18.8538 215.198 18.5302 214.843 18.3077C214.489 18.0813 214.138 17.9356 213.792 17.8666C213.45 17.802 213.115 17.7656 212.789 17.7656C212.713 17.7656 212.673 17.8061 212.673 17.8869V24.5694C212.673 24.6501 212.713 24.6865 212.789 24.6865L214.843 24.8768C214.924 24.8768 214.964 24.9211 214.964 25.0063V25.6373C214.964 25.714 214.924 25.7545 214.843 25.7545H208.343C208.263 25.7545 208.227 25.714 208.227 25.6373V25.0063C208.227 24.9211 208.263 24.8768 208.343 24.8768L210.397 24.6865C210.474 24.6865 210.514 24.6501 210.514 24.5694V10.61C210.514 10.529 210.474 10.4926 210.397 10.4926L208.343 10.2905C208.263 10.2905 208.227 10.25 208.227 10.169V9.54204C208.227 9.4651 208.263 9.42487 208.343 9.42487H214.843Z" fill="white"/>
<path d="M230.935 9.42383C231.016 9.42383 231.052 9.46406 231.052 9.54099V10.1679C231.052 10.249 231.016 10.2895 230.935 10.2895L229.002 10.4915C228.922 10.4915 228.881 10.5279 228.881 10.609V21.4618L236.895 11.6282C236.932 11.5959 236.952 11.5554 236.952 11.5069V10.609C236.952 10.5279 236.911 10.4915 236.823 10.4915L234.89 10.2895C234.809 10.2895 234.769 10.249 234.769 10.1679V9.54099C234.769 9.46406 234.809 9.42383 234.89 9.42383H241.224C241.301 9.42383 241.341 9.46406 241.341 9.54099V10.1679C241.341 10.249 241.301 10.2895 241.224 10.2895L239.171 10.4915C239.094 10.4915 239.054 10.5279 239.054 10.609V24.5683C239.054 24.6491 239.094 24.6855 239.171 24.6855L241.224 24.8758C241.301 24.8758 241.341 24.9201 241.341 25.0053V25.6363C241.341 25.7129 241.301 25.7535 241.224 25.7535H234.89C234.809 25.7535 234.769 25.7129 234.769 25.6363V25.0053C234.769 24.9201 234.809 24.8758 234.89 24.8758L236.823 24.6855C236.911 24.6855 236.952 24.6491 236.952 24.5683V13.4039L228.93 23.2293C228.897 23.2616 228.881 23.3021 228.881 23.3467V24.5683C228.881 24.6491 228.922 24.6855 229.002 24.6855L230.935 24.8758C231.016 24.8758 231.052 24.9201 231.052 25.0053V25.6363C231.052 25.7129 231.016 25.7535 230.935 25.7535H224.601C224.52 25.7535 224.484 25.7129 224.484 25.6363V25.0053C224.484 24.9201 224.52 24.8758 224.601 24.8758L226.655 24.6855C226.731 24.6855 226.771 24.6491 226.771 24.5683V10.609C226.771 10.5279 226.731 10.4915 226.655 10.4915L224.601 10.2895C224.52 10.2895 224.484 10.249 224.484 10.1679V9.54099C224.484 9.46406 224.52 9.42383 224.601 9.42383H230.935Z" fill="white"/>
<path d="M243.137 9.54099C243.137 9.46406 243.173 9.42383 243.254 9.42383H249.589C249.669 9.42383 249.705 9.46406 249.705 9.54099V10.1679C249.705 10.249 249.669 10.2895 249.589 10.2895L247.656 10.4915C247.575 10.4915 247.535 10.5279 247.535 10.609V16.4863C247.535 16.5348 247.547 16.5591 247.571 16.5591H255.335C255.351 16.543 255.359 16.5186 255.359 16.4863V10.609C255.359 10.5279 255.319 10.4915 255.243 10.4915L253.306 10.2895C253.229 10.2895 253.189 10.249 253.189 10.1679V9.54099C253.189 9.46406 253.229 9.42383 253.306 9.42383H259.64C259.721 9.42383 259.761 9.46406 259.761 9.54099V10.1679C259.761 10.249 259.721 10.2895 259.64 10.2895L257.578 10.4915C257.498 10.4915 257.457 10.5279 257.457 10.609V24.5683C257.457 24.6491 257.498 24.6855 257.578 24.6855L259.64 24.8758C259.721 24.8758 259.761 24.9201 259.761 25.0053V25.6363C259.761 25.7129 259.721 25.7535 259.64 25.7535H253.306C253.229 25.7535 253.189 25.7129 253.189 25.6363V25.0053C253.189 24.9201 253.229 24.8758 253.306 24.8758L255.243 24.6855C255.319 24.6855 255.359 24.6491 255.359 24.5683V17.7889C255.359 17.712 255.319 17.6715 255.243 17.6715H247.656C247.575 17.6715 247.535 17.712 247.535 17.7889V24.5683C247.535 24.6491 247.575 24.6855 247.656 24.6855L249.589 24.8758C249.669 24.8758 249.705 24.9201 249.705 25.0053V25.6363C249.705 25.7129 249.669 25.7535 249.589 25.7535H243.254C243.173 25.7535 243.137 25.7129 243.137 25.6363V25.0053C243.137 24.9201 243.173 24.8758 243.254 24.8758L245.308 24.6855C245.384 24.6855 245.425 24.6491 245.425 24.5683V10.609C245.425 10.5279 245.384 10.4915 245.308 10.4915L243.254 10.2895C243.173 10.2895 243.137 10.249 243.137 10.1679V9.54099Z" fill="white"/>
<path d="M269.881 9.05664C272.322 9.05664 274.291 9.86152 275.793 11.4757C277.263 13.0449 278 15.0635 278 17.531C278 19.9782 277.259 22.0047 275.781 23.6106C274.263 25.2691 272.298 26.0984 269.881 26.0984C267.461 26.0984 265.468 25.2973 263.913 23.6916C262.355 22.0898 261.578 20.0672 261.578 17.624C261.578 15.1607 262.343 13.1219 263.877 11.508C265.439 9.87386 267.445 9.05664 269.881 9.05664ZM269.6 10.1487C267.791 10.1487 266.362 10.8608 265.315 12.2926C264.38 13.5791 263.913 15.1648 263.913 17.0456C263.913 18.3966 264.139 19.6464 264.598 20.7992C265.109 22.0816 265.854 23.1008 266.837 23.8655C267.819 24.626 268.943 25.0063 270.199 25.0063C272.016 25.0063 273.417 24.2739 274.4 22.8057C275.242 21.5316 275.664 19.9339 275.664 18.0164C275.664 15.8683 275.133 14.0442 274.07 12.5516C272.93 10.9498 271.44 10.1487 269.6 10.1487Z" fill="white"/>
<path d="M109.857 9.42383C109.934 9.42383 109.974 9.46406 109.974 9.54099V10.1679C109.974 10.249 109.934 10.2895 109.857 10.2895L107.803 10.4915C107.715 10.4915 107.674 10.5279 107.674 10.609V24.5683C107.674 24.6491 107.715 24.6855 107.803 24.6855L109.857 24.8758C109.934 24.8758 109.974 24.9201 109.974 25.0053V25.6363C109.974 25.7129 109.934 25.7535 109.857 25.7535H103.518C103.442 25.7535 103.402 25.7129 103.402 25.6363V25.0053C103.402 24.9201 103.442 24.8758 103.518 24.8758L105.456 24.6855C105.532 24.6855 105.572 24.6491 105.572 24.5683V10.6574C105.572 10.5767 105.532 10.5362 105.456 10.5362H98.2592C98.2267 10.5362 98.1987 10.5403 98.1744 10.5482C98.1504 10.5564 98.1382 10.5767 98.1382 10.609V24.5683C98.1382 24.6491 98.1785 24.6855 98.2592 24.6855L100.192 24.8758C100.273 24.8758 100.309 24.9201 100.309 25.0053V25.6363C100.309 25.7129 100.273 25.7535 100.192 25.7535H93.8574C93.777 25.7535 93.7407 25.7129 93.7407 25.6363V25.0053C93.7407 24.9201 93.777 24.8758 93.8574 24.8758L95.9114 24.6855C95.9877 24.6855 96.028 24.6491 96.028 24.5683V10.609C96.028 10.5279 95.9877 10.4915 95.9114 10.4915L93.8574 10.2895C93.777 10.2895 93.7407 10.249 93.7407 10.1679V9.54099C93.7407 9.46406 93.777 9.42383 93.8574 9.42383H109.857Z" stroke="white" stroke-width="0.288" stroke-miterlimit="22.9256"/>
<path d="M123.529 9.42383C123.609 9.42383 123.646 9.46406 123.646 9.54099V13.3475C123.646 13.4324 123.609 13.4767 123.529 13.4767H122.631C122.554 13.4767 122.514 13.4444 122.514 13.3798L122.031 10.6331C122.031 10.5685 121.99 10.5362 121.914 10.5362H116.381C116.3 10.5362 116.26 10.5767 116.26 10.6574V16.6522C116.26 16.7291 116.3 16.7694 116.381 16.7694H119.707C119.792 16.7694 119.836 16.7371 119.836 16.6766L120.073 14.7106C120.073 14.6457 120.114 14.6134 120.19 14.6134H120.851C120.931 14.6134 120.968 14.654 120.968 14.7309V20.0054C120.968 20.0864 120.931 20.1228 120.851 20.1228H120.19C120.114 20.1228 120.073 20.0946 120.073 20.0297L119.836 17.9425C119.836 17.8738 119.792 17.8374 119.707 17.8374H116.381C116.3 17.8374 116.26 17.882 116.26 17.9669V24.5199C116.26 24.6006 116.3 24.6411 116.381 24.6411H122.244C122.329 24.6411 122.373 24.6088 122.373 24.5439L122.856 21.8418C122.856 21.7813 122.897 21.749 122.973 21.749H123.871C123.952 21.749 123.988 21.7854 123.988 21.8662V25.6363C123.988 25.7129 123.952 25.7535 123.871 25.7535H111.979C111.899 25.7535 111.862 25.7129 111.862 25.6363V25.0053C111.862 24.9201 111.899 24.8758 111.979 24.8758L114.033 24.6855C114.109 24.6855 114.15 24.6491 114.15 24.5683V10.5602C114.117 10.5118 114.077 10.4915 114.033 10.4915L111.979 10.2895C111.899 10.2895 111.862 10.249 111.862 10.1679V9.54099C111.862 9.46406 111.899 9.42383 111.979 9.42383H123.529Z" stroke="white" stroke-width="0.288" stroke-miterlimit="22.9256"/>
<path d="M130.536 10.5362C130.459 10.5362 130.419 10.5767 130.419 10.6574V17.5543C130.419 17.6309 130.459 17.6715 130.536 17.6715H131.941C134.788 17.6715 136.214 16.4176 136.214 13.9137C136.214 12.6962 135.767 11.8144 134.881 11.2603C134.108 10.7787 133.053 10.5362 131.716 10.5362H130.536V10.5362ZM132.131 9.42383C133.673 9.42383 134.837 9.55714 135.622 9.82407C137.611 10.5039 138.606 11.9154 138.606 14.0552C138.606 15.4873 137.97 16.6563 136.697 17.5663C135.562 18.3633 134.249 18.7759 132.755 18.8082L130.419 18.3956V24.5683C130.419 24.6411 130.459 24.6775 130.536 24.6855L132.827 24.8758C132.912 24.8837 132.956 24.9283 132.956 25.0053V25.6363C132.956 25.7129 132.912 25.7535 132.827 25.7535H126.09C126.009 25.7535 125.973 25.7129 125.973 25.6363V25.0053C125.973 24.9201 126.009 24.8758 126.09 24.8758L128.144 24.6855C128.22 24.6855 128.26 24.6491 128.26 24.5683V10.609C128.26 10.5279 128.22 10.4915 128.144 10.4915L126.09 10.2895C126.009 10.2895 125.973 10.249 125.973 10.1679V9.54099C125.973 9.46406 126.009 9.42383 126.09 9.42383H132.131V9.42383Z" stroke="white" stroke-width="0.288" stroke-miterlimit="22.9256"/>
<path d="M151.892 9.42383C151.972 9.42383 152.008 9.46406 152.008 9.54099V13.3475C152.008 13.4324 151.972 13.4767 151.892 13.4767H150.994C150.917 13.4767 150.877 13.4444 150.877 13.3798L150.393 10.6331C150.393 10.5685 150.353 10.5362 150.277 10.5362H144.744C144.663 10.5362 144.623 10.5767 144.623 10.6574V16.6522C144.623 16.7291 144.663 16.7694 144.744 16.7694H148.07C148.154 16.7694 148.199 16.7371 148.199 16.6766L148.436 14.7106C148.436 14.6457 148.477 14.6134 148.553 14.6134H149.214C149.294 14.6134 149.33 14.654 149.33 14.7309V20.0054C149.33 20.0864 149.294 20.1228 149.214 20.1228H148.553C148.477 20.1228 148.436 20.0946 148.436 20.0297L148.199 17.9425C148.199 17.8738 148.154 17.8374 148.07 17.8374H144.744C144.663 17.8374 144.623 17.882 144.623 17.9669V24.5199C144.623 24.6006 144.663 24.6411 144.744 24.6411H150.607C150.692 24.6411 150.736 24.6088 150.736 24.5439L151.219 21.8418C151.219 21.7813 151.259 21.749 151.336 21.749H152.234C152.314 21.749 152.351 21.7854 152.351 21.8662V25.6363C152.351 25.7129 152.314 25.7535 152.234 25.7535H140.342C140.261 25.7535 140.225 25.7129 140.225 25.6363V25.0053C140.225 24.9201 140.261 24.8758 140.342 24.8758L142.396 24.6855C142.472 24.6855 142.512 24.6491 142.512 24.5683V10.5602C142.48 10.5118 142.44 10.4915 142.396 10.4915L140.342 10.2895C140.261 10.2895 140.225 10.249 140.225 10.1679V9.54099C140.225 9.46406 140.261 9.42383 140.342 9.42383H151.892Z" stroke="white" stroke-width="0.288" stroke-miterlimit="22.9256"/>
<path d="M167.408 9.42383C167.484 9.42383 167.525 9.46406 167.525 9.54099V13.3475C167.525 13.4324 167.484 13.4767 167.408 13.4767H166.51C166.433 13.4767 166.393 13.4444 166.393 13.3798L165.91 10.6331C165.91 10.5685 165.869 10.5362 165.789 10.5362H161.874C161.81 10.5362 161.778 10.5767 161.778 10.6574V24.5683C161.778 24.6411 161.818 24.6775 161.899 24.6855L164.186 24.8758C164.27 24.8837 164.315 24.9283 164.315 25.0053V25.6363C164.315 25.7129 164.27 25.7535 164.186 25.7535H157.259C157.175 25.7535 157.131 25.7129 157.131 25.6363V25.0053C157.131 24.9283 157.175 24.8837 157.259 24.8758L159.551 24.6855C159.627 24.6775 159.668 24.6411 159.668 24.5683V10.6574C159.668 10.5767 159.635 10.5362 159.571 10.5362H155.657C155.576 10.5362 155.54 10.5685 155.54 10.6331L155.053 13.3798C155.053 13.4444 155.016 13.4767 154.936 13.4767H154.038C153.961 13.4767 153.921 13.4324 153.921 13.3475V9.54099C153.921 9.46406 153.961 9.42383 154.038 9.42383H167.408V9.42383Z" stroke="white" stroke-width="0.288" stroke-miterlimit="22.9256"/>
<path d="M173.082 13.667C173.082 14.2819 173.207 14.8075 173.461 15.2486C173.71 15.6855 174.036 16.0414 174.439 16.3125C174.838 16.5873 175.293 16.7937 175.8 16.9312C176.308 17.0689 176.827 17.1376 177.363 17.1376H178.45C178.511 17.1376 178.543 17.0971 178.543 17.0201V10.6574C178.543 10.5767 178.502 10.5362 178.426 10.5362H177.552C176.94 10.5362 176.364 10.5726 175.825 10.6454C175.285 10.7141 174.809 10.8639 174.395 11.0944C173.984 11.3249 173.662 11.6403 173.428 12.0408C173.199 12.4454 173.082 12.9875 173.082 13.667V13.667ZM182.872 9.42383C182.952 9.42383 182.992 9.46406 182.992 9.54099V10.1679C182.992 10.249 182.952 10.2895 182.872 10.2895L180.81 10.4915C180.729 10.4915 180.689 10.5279 180.689 10.609V24.5683C180.689 24.6491 180.729 24.6855 180.81 24.6855L182.872 24.8758C182.952 24.8758 182.992 24.9201 182.992 25.0053V25.6363C182.992 25.7129 182.952 25.7535 182.872 25.7535H176.127C176.046 25.7535 176.005 25.7129 176.005 25.6363V25.0053C176.005 24.9201 176.046 24.8758 176.127 24.8758L178.426 24.6855C178.502 24.6855 178.543 24.6491 178.543 24.5683V18.2297C178.543 18.1974 178.531 18.173 178.506 18.1569C178.486 18.1407 178.458 18.1328 178.426 18.1328H178.035C177.665 18.1328 177.318 18.173 176.988 18.2499C176.654 18.331 176.332 18.4846 176.018 18.7151C175.703 18.9418 175.394 19.2654 175.088 19.6738C174.781 20.0864 174.471 20.6202 174.165 21.2877L172.091 25.6604C172.059 25.7212 172.003 25.7535 171.926 25.7535H168.124C168.048 25.7535 168.008 25.7129 168.008 25.6363V25.0053C168.008 24.9201 168.048 24.8758 168.124 24.8758L169.897 24.6855C169.973 24.6855 170.029 24.6532 170.062 24.5927L172.184 20.5879C172.365 20.2643 172.542 19.9528 172.72 19.6618C172.897 19.3705 173.086 19.1115 173.287 18.8851C173.489 18.6625 173.722 18.4602 173.988 18.2822C174.258 18.1043 174.56 17.9545 174.898 17.8374C174.254 17.7281 173.67 17.5502 173.146 17.3114C172.623 17.0689 172.18 16.7614 171.814 16.3853C171.447 16.0091 171.165 15.5924 170.964 15.1352C170.762 14.6783 170.662 14.1806 170.662 13.6426C170.662 13.0116 170.799 12.417 171.077 11.8587C171.35 11.3005 171.781 10.8151 172.361 10.3946C172.905 9.9982 173.573 9.7392 174.375 9.61382C175.172 9.48432 176.086 9.42383 177.117 9.42383H182.872V9.42383Z" stroke="white" stroke-width="0.288" stroke-miterlimit="22.9256"/>
<path d="M198.823 9.42487C198.904 9.42487 198.94 9.4651 198.94 9.54204V10.169C198.94 10.25 198.904 10.2905 198.823 10.2905L196.77 10.4926C196.685 10.4926 196.641 10.529 196.641 10.61V16.7017C196.641 16.7786 196.677 16.8192 196.745 16.8192C197.196 16.8192 197.603 16.7584 197.974 16.6412C198.344 16.5238 198.682 16.3417 198.988 16.095C199.295 15.8522 199.568 15.5571 199.81 15.2173C200.048 14.8814 200.281 14.485 200.511 14.036L201.691 11.5808C201.92 11.1318 202.15 10.7433 202.379 10.4197C202.613 10.0961 202.854 9.83333 203.104 9.63101C203.358 9.42869 203.616 9.28333 203.885 9.19407C204.151 9.10127 204.429 9.05664 204.711 9.05664C204.828 9.05664 204.965 9.06868 205.118 9.09305C205.271 9.11742 205.428 9.15384 205.589 9.21051C205.75 9.26689 205.899 9.3359 206.032 9.41665C206.165 9.50151 206.277 9.59049 206.362 9.68357C206.378 9.69972 206.394 9.73614 206.41 9.79692C206.427 9.85771 206.418 9.89412 206.386 9.91027L205.194 11.5324C205.13 11.6131 205.077 11.6375 205.029 11.6049C204.888 11.4472 204.727 11.3177 204.55 11.2208C204.373 11.1195 204.195 11.0711 204.014 11.0711C203.757 11.0711 203.495 11.1682 203.229 11.3623C202.967 11.5564 202.721 11.9123 202.492 12.4342L201.892 13.7368C201.711 14.0927 201.513 14.4527 201.308 14.8168C201.099 15.1809 200.877 15.5166 200.647 15.824C200.414 16.1314 200.177 16.3984 199.931 16.6289C199.689 16.8594 199.452 17.0212 199.226 17.1143C199.548 17.2115 199.854 17.3286 200.144 17.4784C200.434 17.624 200.728 17.8223 201.018 18.0771C201.308 18.3279 201.586 18.6313 201.848 18.9872C202.113 19.3431 202.383 19.768 202.657 20.2695L204.912 24.5937C204.957 24.6542 205.013 24.6865 205.077 24.6865L206.845 24.8768C206.926 24.8768 206.962 24.9211 206.962 25.0063V25.6373C206.962 25.714 206.926 25.7545 206.845 25.7545H203.048C202.983 25.7545 202.931 25.7222 202.882 25.6614L200.676 20.9775C200.338 20.2613 199.991 19.691 199.637 19.2702C199.282 18.8538 198.94 18.5302 198.61 18.3077C198.28 18.0813 197.957 17.9356 197.643 17.8666C197.329 17.802 197.039 17.7656 196.77 17.7656C196.685 17.7656 196.641 17.8061 196.641 17.8869V24.5694C196.641 24.6501 196.685 24.6865 196.77 24.6865L198.823 24.8768C198.904 24.8768 198.94 24.9211 198.94 25.0063V25.6373C198.94 25.714 198.904 25.7545 198.823 25.7545H192.392C192.315 25.7545 192.275 25.714 192.275 25.6373V25.0063C192.275 24.9211 192.315 24.8768 192.392 24.8768L194.446 24.6865C194.526 24.6865 194.563 24.6501 194.563 24.5694V17.8869C194.563 17.8061 194.526 17.7656 194.446 17.7656C194.172 17.7656 193.874 17.802 193.56 17.8666C193.246 17.9356 192.92 18.0813 192.581 18.3077C192.243 18.5302 191.901 18.8538 191.554 19.2702C191.208 19.691 190.866 20.2613 190.527 20.9775L188.333 25.6614C188.304 25.7222 188.244 25.7545 188.159 25.7545H184.37C184.293 25.7545 184.253 25.714 184.253 25.6373V25.0063C184.253 24.9211 184.293 24.8768 184.37 24.8768L186.13 24.6865C186.214 24.6865 186.275 24.6542 186.307 24.5937L188.546 20.2695C188.808 19.768 189.078 19.3431 189.36 18.9872C189.645 18.6313 189.923 18.3279 190.193 18.0771C190.463 17.8223 190.749 17.624 191.047 17.4784C191.349 17.3286 191.659 17.2115 191.981 17.1143C191.752 17.0212 191.518 16.8594 191.276 16.6289C191.039 16.3984 190.801 16.1314 190.572 15.824C190.338 15.5166 190.113 15.1809 189.891 14.8168C189.674 14.4527 189.484 14.0927 189.327 13.7368L188.723 12.4342C188.498 11.9285 188.244 11.5767 187.97 11.3744C187.693 11.1724 187.439 11.0711 187.201 11.0711C187.02 11.0711 186.843 11.1195 186.666 11.2208C186.488 11.3177 186.327 11.4472 186.186 11.6049C186.118 11.6213 186.057 11.597 186.009 11.5324L184.829 9.91027C184.817 9.89412 184.813 9.85771 184.817 9.79692C184.825 9.73614 184.837 9.69972 184.853 9.68357C184.934 9.59049 185.042 9.50151 185.18 9.41665C185.316 9.3359 185.465 9.26689 185.627 9.21051C185.788 9.15384 185.945 9.11742 186.098 9.09305C186.251 9.06868 186.384 9.05664 186.492 9.05664C186.786 9.05664 187.064 9.10127 187.334 9.19407C187.6 9.28333 187.854 9.42869 188.091 9.63101C188.333 9.83333 188.574 10.0961 188.82 10.4197C189.062 10.7433 189.295 11.1318 189.513 11.5808L190.705 14.036C190.91 14.485 191.144 14.8814 191.401 15.2173C191.663 15.5571 191.941 15.8522 192.235 16.095C192.529 16.3417 192.863 16.5238 193.238 16.6412C193.612 16.7584 194.023 16.8192 194.47 16.8192C194.535 16.8192 194.563 16.7786 194.563 16.7017V10.61C194.563 10.529 194.526 10.4926 194.446 10.4926L192.392 10.2905C192.315 10.2905 192.275 10.25 192.275 10.169V9.54204C192.275 9.4651 192.315 9.42487 192.392 9.42487H198.823V9.42487Z" stroke="white" stroke-width="0.288" stroke-miterlimit="22.9256"/>
<path d="M214.843 9.42487C214.924 9.42487 214.964 9.4651 214.964 9.54204V10.169C214.964 10.25 214.924 10.2905 214.843 10.2905L212.789 10.4926C212.713 10.4926 212.673 10.529 212.673 10.61V16.7017C212.673 16.7786 212.705 16.8192 212.769 16.8192C213.281 16.8192 213.732 16.7584 214.13 16.6412C214.529 16.5238 214.887 16.3458 215.21 16.1071C215.532 15.8725 215.818 15.5773 216.063 15.2294C216.313 14.8814 216.55 14.485 216.78 14.036L217.96 11.5808C218.186 11.1318 218.415 10.7433 218.649 10.4197C218.882 10.0961 219.124 9.83333 219.374 9.63101C219.627 9.42869 219.885 9.28333 220.147 9.19407C220.413 9.10127 220.686 9.05664 220.98 9.05664C221.089 9.05664 221.222 9.06868 221.375 9.09305C221.528 9.11742 221.681 9.15384 221.834 9.21051C221.987 9.26689 222.132 9.3359 222.269 9.41665C222.41 9.50151 222.523 9.59049 222.619 9.68357C222.635 9.69972 222.652 9.73614 222.672 9.79692C222.692 9.85771 222.684 9.89412 222.644 9.91027L221.464 11.5324C221.431 11.5808 221.399 11.6131 221.367 11.6293C221.339 11.6454 221.307 11.6454 221.274 11.6293C221.125 11.4716 220.964 11.338 220.795 11.2328C220.626 11.1236 220.457 11.0711 220.284 11.0711C220.038 11.0711 219.78 11.1682 219.502 11.3623C219.229 11.5564 218.983 11.9123 218.761 12.4342L218.161 13.7368C217.98 14.1088 217.783 14.477 217.573 14.845C217.368 15.2132 217.147 15.5489 216.909 15.8522C216.671 16.1558 216.434 16.4186 216.196 16.6412C215.954 16.8635 215.721 17.0212 215.491 17.1143C215.813 17.2115 216.128 17.3286 216.426 17.4784C216.724 17.624 217.014 17.8223 217.299 18.0771C217.582 18.3279 217.855 18.6313 218.117 18.9872C218.383 19.3431 218.653 19.768 218.926 20.2695L221.182 24.5937C221.226 24.6542 221.282 24.6865 221.343 24.6865L223.103 24.8768C223.187 24.8768 223.231 24.9211 223.231 25.0063V25.6373C223.231 25.714 223.187 25.7545 223.103 25.7545H219.317C219.253 25.7545 219.192 25.7222 219.14 25.6614L216.945 20.9775C216.607 20.2613 216.26 19.691 215.906 19.2702C215.552 18.8538 215.198 18.5302 214.843 18.3077C214.489 18.0813 214.138 17.9356 213.792 17.8666C213.45 17.802 213.115 17.7656 212.789 17.7656C212.713 17.7656 212.673 17.8061 212.673 17.8869V24.5694C212.673 24.6501 212.713 24.6865 212.789 24.6865L214.843 24.8768C214.924 24.8768 214.964 24.9211 214.964 25.0063V25.6373C214.964 25.714 214.924 25.7545 214.843 25.7545H208.343C208.263 25.7545 208.227 25.714 208.227 25.6373V25.0063C208.227 24.9211 208.263 24.8768 208.343 24.8768L210.397 24.6865C210.474 24.6865 210.514 24.6501 210.514 24.5694V10.61C210.514 10.529 210.474 10.4926 210.397 10.4926L208.343 10.2905C208.263 10.2905 208.227 10.25 208.227 10.169V9.54204C208.227 9.4651 208.263 9.42487 208.343 9.42487H214.843V9.42487Z" stroke="white" stroke-width="0.288" stroke-miterlimit="22.9256"/>
<path d="M230.935 9.42383C231.016 9.42383 231.052 9.46406 231.052 9.54099V10.1679C231.052 10.249 231.016 10.2895 230.935 10.2895L229.002 10.4915C228.922 10.4915 228.881 10.5279 228.881 10.609V21.4618L236.895 11.6282C236.932 11.5959 236.952 11.5554 236.952 11.5069V10.609C236.952 10.5279 236.911 10.4915 236.823 10.4915L234.89 10.2895C234.809 10.2895 234.769 10.249 234.769 10.1679V9.54099C234.769 9.46406 234.809 9.42383 234.89 9.42383H241.224C241.301 9.42383 241.341 9.46406 241.341 9.54099V10.1679C241.341 10.249 241.301 10.2895 241.224 10.2895L239.171 10.4915C239.094 10.4915 239.054 10.5279 239.054 10.609V24.5683C239.054 24.6491 239.094 24.6855 239.171 24.6855L241.224 24.8758C241.301 24.8758 241.341 24.9201 241.341 25.0053V25.6363C241.341 25.7129 241.301 25.7535 241.224 25.7535H234.89C234.809 25.7535 234.769 25.7129 234.769 25.6363V25.0053C234.769 24.9201 234.809 24.8758 234.89 24.8758L236.823 24.6855C236.911 24.6855 236.952 24.6491 236.952 24.5683V13.4039L228.93 23.2293C228.897 23.2616 228.881 23.3021 228.881 23.3467V24.5683C228.881 24.6491 228.922 24.6855 229.002 24.6855L230.935 24.8758C231.016 24.8758 231.052 24.9201 231.052 25.0053V25.6363C231.052 25.7129 231.016 25.7535 230.935 25.7535H224.601C224.52 25.7535 224.484 25.7129 224.484 25.6363V25.0053C224.484 24.9201 224.52 24.8758 224.601 24.8758L226.655 24.6855C226.731 24.6855 226.771 24.6491 226.771 24.5683V10.609C226.771 10.5279 226.731 10.4915 226.655 10.4915L224.601 10.2895C224.52 10.2895 224.484 10.249 224.484 10.1679V9.54099C224.484 9.46406 224.52 9.42383 224.601 9.42383H230.935V9.42383Z" stroke="white" stroke-width="0.288" stroke-miterlimit="22.9256"/>
<path d="M243.137 9.54099C243.137 9.46406 243.173 9.42383 243.254 9.42383H249.589C249.669 9.42383 249.705 9.46406 249.705 9.54099V10.1679C249.705 10.249 249.669 10.2895 249.589 10.2895L247.656 10.4915C247.575 10.4915 247.535 10.5279 247.535 10.609V16.4863C247.535 16.5348 247.547 16.5591 247.571 16.5591H255.335C255.351 16.543 255.359 16.5186 255.359 16.4863V10.609C255.359 10.5279 255.319 10.4915 255.243 10.4915L253.306 10.2895C253.229 10.2895 253.189 10.249 253.189 10.1679V9.54099C253.189 9.46406 253.229 9.42383 253.306 9.42383H259.64C259.721 9.42383 259.761 9.46406 259.761 9.54099V10.1679C259.761 10.249 259.721 10.2895 259.64 10.2895L257.578 10.4915C257.498 10.4915 257.457 10.5279 257.457 10.609V24.5683C257.457 24.6491 257.498 24.6855 257.578 24.6855L259.64 24.8758C259.721 24.8758 259.761 24.9201 259.761 25.0053V25.6363C259.761 25.7129 259.721 25.7535 259.64 25.7535H253.306C253.229 25.7535 253.189 25.7129 253.189 25.6363V25.0053C253.189 24.9201 253.229 24.8758 253.306 24.8758L255.243 24.6855C255.319 24.6855 255.359 24.6491 255.359 24.5683V17.7889C255.359 17.712 255.319 17.6715 255.243 17.6715H247.656C247.575 17.6715 247.535 17.712 247.535 17.7889V24.5683C247.535 24.6491 247.575 24.6855 247.656 24.6855L249.589 24.8758C249.669 24.8758 249.705 24.9201 249.705 25.0053V25.6363C249.705 25.7129 249.669 25.7535 249.589 25.7535H243.254C243.173 25.7535 243.137 25.7129 243.137 25.6363V25.0053C243.137 24.9201 243.173 24.8758 243.254 24.8758L245.308 24.6855C245.384 24.6855 245.425 24.6491 245.425 24.5683V10.609C245.425 10.5279 245.384 10.4915 245.308 10.4915L243.254 10.2895C243.173 10.2895 243.137 10.249 243.137 10.1679V9.54099Z" stroke="white" stroke-width="0.288" stroke-miterlimit="22.9256"/>
<path d="M269.881 9.05664C272.322 9.05664 274.291 9.86152 275.793 11.4757C277.263 13.0449 278 15.0635 278 17.531C278 19.9782 277.259 22.0047 275.781 23.6106C274.263 25.2691 272.298 26.0984 269.881 26.0984C267.461 26.0984 265.468 25.2973 263.913 23.6916C262.355 22.0898 261.578 20.0672 261.578 17.624C261.578 15.1607 262.343 13.1219 263.877 11.508C265.439 9.87386 267.445 9.05664 269.881 9.05664ZM269.6 10.1487C267.791 10.1487 266.362 10.8608 265.315 12.2926C264.38 13.5791 263.913 15.1648 263.913 17.0456C263.913 18.3966 264.139 19.6464 264.598 20.7992C265.109 22.0816 265.854 23.1008 266.837 23.8655C267.819 24.626 268.943 25.0063 270.199 25.0063C272.016 25.0063 273.417 24.2739 274.4 22.8057C275.242 21.5316 275.664 19.9339 275.664 18.0164C275.664 15.8683 275.133 14.0442 274.07 12.5516C272.93 10.9498 271.44 10.1487 269.6 10.1487V10.1487Z" stroke="white" stroke-width="0.288" stroke-miterlimit="22.9256"/>
<path d="M99.4929 34.3281H93.7407V42.4169H94.3503V34.9057H98.8717V42.4169H99.4929V34.3281Z" fill="#A3A3A3"/>
<path d="M103.956 36.5112C102.196 36.5112 100.977 37.8285 100.977 39.5273C100.977 41.2721 102.231 42.5433 104.002 42.5433C105.141 42.5433 106.039 42.0233 106.51 41.2375L106.004 40.9371C105.67 41.5496 104.957 41.9886 104.014 41.9886C102.702 41.9886 101.713 41.1335 101.575 39.8277H106.786C106.786 39.7352 106.798 39.643 106.798 39.5505C106.798 37.9671 105.705 36.5112 103.956 36.5112ZM103.956 37.0659C105.084 37.0659 106.073 37.8517 106.2 39.2615H101.575C101.69 37.9789 102.645 37.0659 103.956 37.0659Z" fill="#A3A3A3"/>
<path d="M111.193 36.5112C110.077 36.5112 109.191 37.0891 108.719 37.9789V36.6384H108.144V44.7271H108.719V41.0757C109.191 41.9654 110.077 42.5433 111.193 42.5433C112.838 42.5433 114.172 41.2375 114.172 39.5273C114.172 37.8171 112.838 36.5112 111.193 36.5112ZM111.158 41.9886C109.789 41.9886 108.719 40.9024 108.719 39.5273C108.719 38.1521 109.789 37.0659 111.158 37.0659C112.527 37.0659 113.597 38.1521 113.597 39.5273C113.597 40.9024 112.527 41.9886 111.158 41.9886Z" fill="#A3A3A3"/>
<path d="M118.152 36.5112C116.392 36.5112 115.173 37.8285 115.173 39.5273C115.173 41.2721 116.427 42.5433 118.199 42.5433C119.338 42.5433 120.235 42.0233 120.706 41.2375L120.2 40.9371C119.867 41.5496 119.153 41.9886 118.21 41.9886C116.899 41.9886 115.909 41.1335 115.771 39.8277H120.983C120.983 39.7352 120.994 39.643 120.994 39.5505C120.994 37.9671 119.901 36.5112 118.152 36.5112ZM118.152 37.0659C119.28 37.0659 120.269 37.8517 120.396 39.2615H115.771C115.886 37.9789 116.841 37.0659 118.152 37.0659Z" fill="#A3A3A3"/>
<path d="M126.137 36.6387H121.374V37.2048H123.468V42.4164H124.043V37.2048H126.137V36.6387Z" fill="#A3A3A3"/>
<path d="M130.807 36.6387H128.529C127.506 36.6387 126.631 37.3434 126.631 38.4067C126.631 39.3772 127.368 40.0476 128.276 40.1516L126.436 42.4164H127.183L128.989 40.163H130.232V42.4164H130.807V36.6387ZM128.529 39.6083C127.805 39.6083 127.218 39.1461 127.218 38.4067C127.218 37.6788 127.805 37.2048 128.529 37.2048H130.232V39.6083H128.529Z" fill="#A3A3A3"/>
<path d="M139.056 42.4164L136.341 39.4119L138.941 36.6387H138.227L135.8 39.2504V36.6387H135.213V39.2504L132.786 36.6387H132.073L134.684 39.4119L131.958 42.4164H132.671L135.213 39.5737V42.4164H135.8V39.5737L138.342 42.4164H139.056Z" fill="#A3A3A3"/>
<path d="M144.612 42.4164L141.403 39.4119L144.497 36.6387H143.692L140.781 39.2618V36.6387H140.206V42.4164H140.781V39.5737L143.83 42.4164H144.612Z" fill="#A3A3A3"/>
<path d="M150.249 36.6384V37.9442C149.766 37.0774 148.88 36.5112 147.776 36.5112C146.142 36.5112 144.796 37.8171 144.796 39.5273C144.796 41.2375 146.142 42.5433 147.776 42.5433C148.88 42.5433 149.766 41.9772 150.249 41.1103V42.4162H150.836V36.6384H150.249ZM147.822 41.9886C146.453 41.9886 145.383 40.9024 145.383 39.5273C145.383 38.1521 146.453 37.0659 147.822 37.0659C149.191 37.0659 150.249 38.1521 150.249 39.5273C150.249 40.9024 149.191 41.9886 147.822 41.9886Z" fill="#A3A3A3"/>
<path d="M159.924 36.6387L156.255 41.411V36.6387H155.679V42.4164H156.186L159.844 37.6441V42.4164H160.43V36.6387H159.924Z" fill="#A3A3A3"/>
<path d="M168.322 36.5112C167.207 36.5112 166.321 37.0891 165.849 37.9789V36.6384H165.274V44.7271H165.849V41.0757C166.321 41.9654 167.207 42.5433 168.322 42.5433C169.968 42.5433 171.302 41.2375 171.302 39.5273C171.302 37.8171 169.968 36.5112 168.322 36.5112ZM168.288 41.9886C166.919 41.9886 165.849 40.9024 165.849 39.5273C165.849 38.1521 166.919 37.0659 168.288 37.0659C169.657 37.0659 170.727 38.1521 170.727 39.5273C170.727 40.9024 169.657 41.9886 168.288 41.9886Z" fill="#A3A3A3"/>
<path d="M175.283 36.5112C173.523 36.5112 172.303 37.8285 172.303 39.5273C172.303 41.2721 173.557 42.5433 175.329 42.5433C176.468 42.5433 177.365 42.0233 177.837 41.2375L177.331 40.9371C176.997 41.5496 176.284 41.9886 175.34 41.9886C174.029 41.9886 173.04 41.1335 172.901 39.8277H178.113C178.113 39.7352 178.124 39.643 178.124 39.5505C178.124 37.9671 177.032 36.5112 175.283 36.5112ZM175.283 37.0659C176.41 37.0659 177.4 37.8517 177.526 39.2615H172.901C173.017 37.9789 173.971 37.0659 175.283 37.0659Z" fill="#A3A3A3"/>
<path d="M185.027 36.6387H184.337L182.243 39.9551L180.149 36.6387H179.47V42.4164H180.046V37.4938L182.208 40.9259H182.289L184.44 37.517V42.4164H185.027V36.6387Z" fill="#A3A3A3"/>
<path d="M189.433 42.5433C191.101 42.5433 192.447 41.2375 192.447 39.5273C192.447 37.8171 191.101 36.5112 189.433 36.5112C187.753 36.5112 186.407 37.8171 186.407 39.5273C186.407 41.2375 187.753 42.5433 189.433 42.5433ZM189.433 41.9886C188.064 41.9886 186.994 40.9024 186.994 39.5273C186.994 38.1521 188.064 37.0659 189.433 37.0659C190.802 37.0659 191.86 38.1521 191.86 39.5273C191.86 40.9024 190.802 41.9886 189.433 41.9886Z" fill="#A3A3A3"/>
<path d="M197.992 36.6387V39.2504H194.403V36.6387H193.828V42.4164H194.403V39.8048H197.992V42.4164H198.579V36.6387H197.992Z" fill="#A3A3A3"/>
<path d="M204.377 36.6387H199.615V37.2048H201.709V42.4164H202.284V37.2048H204.377V36.6387Z" fill="#A3A3A3"/>
<path d="M214.041 36.6387H213.351L211.257 39.9551L209.163 36.6387H208.484V42.4164H209.06V37.4938L211.222 40.9259H211.303L213.454 37.517V42.4164H214.041V36.6387Z" fill="#A3A3A3"/>
<path d="M218.401 36.5112C216.641 36.5112 215.421 37.8285 215.421 39.5273C215.421 41.2721 216.676 42.5433 218.447 42.5433C219.586 42.5433 220.483 42.0233 220.955 41.2375L220.449 40.9371C220.115 41.5496 219.402 41.9886 218.459 41.9886C217.147 41.9886 216.158 41.1335 216.02 39.8277H221.231C221.231 39.7352 221.243 39.643 221.243 39.5505C221.243 37.9671 220.15 36.5112 218.401 36.5112ZM218.401 37.0659C219.529 37.0659 220.518 37.8517 220.644 39.2615H216.02C216.135 37.9789 217.09 37.0659 218.401 37.0659Z" fill="#A3A3A3"/>
<path d="M225.096 42.555C226.718 42.555 227.892 41.4109 227.892 39.8625C227.892 38.2795 226.741 37.1586 225.223 37.1586C224.429 37.1586 223.451 37.5169 222.876 38.4181C223.06 37.4012 223.532 36.8811 224.659 36.3728C225.833 35.8296 227.041 35.5524 227.236 34.443L226.776 34.1772C226.615 35.1595 225.602 35.3098 224.349 35.9106C222.519 36.8118 222.197 37.7826 222.197 39.5853C222.197 41.3763 223.463 42.555 225.096 42.555ZM225.096 41.9774C223.785 41.9774 222.818 41.0412 222.818 39.7125C222.911 38.4874 224.038 37.7248 225.154 37.7248C226.431 37.7248 227.305 38.6263 227.305 39.8625C227.305 41.0876 226.396 41.9774 225.096 41.9774Z" fill="#A3A3A3"/>
<path d="M231.746 36.5112C229.985 36.5112 228.766 37.8285 228.766 39.5273C228.766 41.2721 230.02 42.5433 231.792 42.5433C232.931 42.5433 233.828 42.0233 234.3 41.2375L233.794 40.9371C233.46 41.5496 232.747 41.9886 231.803 41.9886C230.492 41.9886 229.503 41.1335 229.364 39.8277H234.576C234.576 39.7352 234.587 39.643 234.587 39.5505C234.587 37.9671 233.494 36.5112 231.746 36.5112ZM231.746 37.0659C232.873 37.0659 233.863 37.8517 233.989 39.2615H229.364C229.479 37.9789 230.434 37.0659 231.746 37.0659Z" fill="#A3A3A3"/>
<path d="M240.374 36.6387H236.325V39.9898C236.325 41.4803 235.853 41.9542 234.967 41.8732V42.4164C236.049 42.4972 236.9 42.0121 236.9 39.9898V37.2048H239.799V42.4164H240.374V36.6387Z" fill="#A3A3A3"/>
<path d="M246.391 36.6387L242.721 41.411V36.6387H242.146V42.4164H242.652L246.31 37.6441V42.4164H246.897V36.6387H246.391Z" fill="#A3A3A3"/>
</svg>
