<svg width="312" height="67" viewBox="0 0 312 67" fill="none" xmlns="http://www.w3.org/2000/svg">
<path fill-rule="evenodd" clip-rule="evenodd" d="M16.3022 5.60569L18.1308 34.189L67.9565 34.3624L70.3946 5.60569L55.3096 20.3304L43.577 0.754883L31.6919 20.3304L16.3022 5.60569Z" fill="#B38D68"/>
<path fill-rule="evenodd" clip-rule="evenodd" d="M80.8591 16.022H80.8588C77.7251 16.022 75.0339 18.9365 74.8782 22.4995L74.0106 40.1316L12.8085 40.2148V40.2189L12.1516 22.4995C12.02 18.9354 9.30462 16.022 6.17098 16.022H6.17065C3.03702 16.022 0.600832 18.9365 0.756583 22.4995L2.67294 66.3354H14.0679L13.8243 60.7614H73.2057L72.9618 66.3354H84.3568L86.2732 22.4995C86.4289 18.9365 83.9927 16.022 80.8591 16.022Z" fill="#B38D68"/>
<path d="M53.8259 48.4985H32.2565C24.1677 48.4985 17.6104 49.3913 17.6104 50.4926C17.6104 51.5939 24.1677 52.4866 32.2565 52.4866H53.8259C61.9148 52.4866 68.4721 51.5939 68.4721 50.4926C68.4721 49.3913 61.9148 48.4985 53.8259 48.4985Z" fill="#1D2B38"/>
<path d="M123.45 12.6689C123.536 12.6689 123.581 12.7198 123.581 12.8171V13.6096C123.581 13.7121 123.536 13.7633 123.45 13.7633L121.156 14.0187C121.057 14.0187 121.012 14.0648 121.012 14.1672V31.8146C121.012 31.9166 121.057 31.9627 121.156 31.9627L123.45 32.2032C123.536 32.2032 123.581 32.2593 123.581 32.3669V33.1647C123.581 33.2616 123.536 33.3128 123.45 33.3128H116.371C116.285 33.3128 116.24 33.2616 116.24 33.1647V32.3669C116.24 32.2593 116.285 32.2032 116.371 32.2032L118.534 31.9627C118.62 31.9627 118.664 31.9166 118.664 31.8146V14.2285C118.664 14.1264 118.62 14.0751 118.534 14.0751H110.496C110.46 14.0751 110.429 14.0803 110.402 14.0904C110.375 14.1008 110.361 14.1264 110.361 14.1672V31.8146C110.361 31.9166 110.406 31.9627 110.496 31.9627L112.655 32.2032C112.745 32.2032 112.786 32.2593 112.786 32.3669V33.1647C112.786 33.2616 112.745 33.3128 112.655 33.3128H105.58C105.49 33.3128 105.45 33.2616 105.45 33.1647V32.3669C105.45 32.2593 105.49 32.2032 105.58 32.2032L107.874 31.9627C107.959 31.9627 108.004 31.9166 108.004 31.8146V14.1672C108.004 14.0648 107.959 14.0187 107.874 14.0187L105.58 13.7633C105.49 13.7633 105.45 13.7121 105.45 13.6096V12.8171C105.45 12.7198 105.49 12.6689 105.58 12.6689H123.45Z" fill="#1D2B38"/>
<path d="M138.72 12.6689C138.81 12.6689 138.851 12.7198 138.851 12.8171V17.6293C138.851 17.7366 138.81 17.7926 138.72 17.7926H137.717C137.632 17.7926 137.587 17.7518 137.587 17.6701L137.047 14.1977C137.047 14.116 137.002 14.0751 136.917 14.0751H130.737C130.647 14.0751 130.601 14.1264 130.601 14.2285V21.807C130.601 21.9043 130.647 21.9552 130.737 21.9552H134.452C134.546 21.9552 134.596 21.9143 134.596 21.8379L134.861 19.3525C134.861 19.2705 134.906 19.2296 134.992 19.2296H135.729C135.819 19.2296 135.86 19.2809 135.86 19.3781V26.0461C135.86 26.1485 135.819 26.1946 135.729 26.1946H134.992C134.906 26.1946 134.861 26.1589 134.861 26.0769L134.596 23.4382C134.596 23.3513 134.546 23.3053 134.452 23.3053H130.737C130.647 23.3053 130.601 23.3617 130.601 23.469V31.7533C130.601 31.8554 130.647 31.9066 130.737 31.9066H137.285C137.38 31.9066 137.429 31.8658 137.429 31.7837L137.969 28.3677C137.969 28.2913 138.014 28.2504 138.1 28.2504H139.102C139.193 28.2504 139.233 28.2964 139.233 28.3985V33.1647C139.233 33.2616 139.193 33.3128 139.102 33.3128H125.82C125.73 33.3128 125.69 33.2616 125.69 33.1647V32.3669C125.69 32.2593 125.73 32.2032 125.82 32.2032L128.114 31.9627C128.2 31.9627 128.245 31.9166 128.245 31.8146V14.1056C128.209 14.0443 128.164 14.0187 128.114 14.0187L125.82 13.7633C125.73 13.7633 125.69 13.7121 125.69 13.6096V12.8171C125.69 12.7198 125.73 12.6689 125.82 12.6689H138.72Z" fill="#1D2B38"/>
<path d="M146.547 14.0751C146.461 14.0751 146.416 14.1264 146.416 14.2285V22.9475C146.416 23.0443 146.461 23.0956 146.547 23.0956H148.117C151.297 23.0956 152.889 21.5104 152.889 18.345C152.889 16.8059 152.39 15.6911 151.4 14.9906C150.536 14.3818 149.358 14.0751 147.865 14.0751H146.547ZM148.328 12.6689C150.051 12.6689 151.351 12.8375 152.228 13.1749C154.45 14.0343 155.561 15.8188 155.561 18.5239C155.561 20.3344 154.85 21.8122 153.429 22.9627C152.16 23.9702 150.694 24.4918 149.025 24.5326L146.416 24.011V31.8146C146.416 31.9066 146.461 31.9527 146.547 31.9627L149.106 32.2032C149.2 32.2133 149.25 32.2697 149.25 32.3669V33.1647C149.25 33.2616 149.2 33.3128 149.106 33.3128H141.581C141.491 33.3128 141.451 33.2616 141.451 33.1647V32.3669C141.451 32.2593 141.491 32.2032 141.581 32.2032L143.875 31.9627C143.96 31.9627 144.005 31.9166 144.005 31.8146V14.1672C144.005 14.0648 143.96 14.0187 143.875 14.0187L141.581 13.7633C141.491 13.7633 141.451 13.7121 141.451 13.6096V12.8171C141.451 12.7198 141.491 12.6689 141.581 12.6689H148.328Z" fill="#1D2B38"/>
<path d="M170.399 12.6689C170.489 12.6689 170.529 12.7198 170.529 12.8171V17.6293C170.529 17.7366 170.489 17.7926 170.399 17.7926H169.396C169.311 17.7926 169.266 17.7518 169.266 17.6701L168.726 14.1977C168.726 14.116 168.681 14.0751 168.595 14.0751H162.415C162.325 14.0751 162.28 14.1264 162.28 14.2285V21.807C162.28 21.9043 162.325 21.9552 162.415 21.9552H166.131C166.225 21.9552 166.275 21.9143 166.275 21.8379L166.54 19.3525C166.54 19.2705 166.585 19.2296 166.67 19.2296H167.408C167.498 19.2296 167.539 19.2809 167.539 19.3781V26.0461C167.539 26.1485 167.498 26.1946 167.408 26.1946H166.67C166.585 26.1946 166.54 26.1589 166.54 26.0769L166.275 23.4382C166.275 23.3513 166.225 23.3053 166.131 23.3053H162.415C162.325 23.3053 162.28 23.3617 162.28 23.469V31.7533C162.28 31.8554 162.325 31.9066 162.415 31.9066H168.964C169.059 31.9066 169.108 31.8658 169.108 31.7837L169.648 28.3677C169.648 28.2913 169.693 28.2504 169.778 28.2504H170.781C170.871 28.2504 170.912 28.2964 170.912 28.3985V33.1647C170.912 33.2616 170.871 33.3128 170.781 33.3128H157.499C157.409 33.3128 157.369 33.2616 157.369 33.1647V32.3669C157.369 32.2593 157.409 32.2032 157.499 32.2032L159.793 31.9627C159.878 31.9627 159.923 31.9166 159.923 31.8146V14.1056C159.887 14.0443 159.842 14.0187 159.793 14.0187L157.499 13.7633C157.409 13.7633 157.369 13.7121 157.369 13.6096V12.8171C157.369 12.7198 157.409 12.6689 157.499 12.6689H170.399Z" fill="#1D2B38"/>
<path d="M187.729 12.6689C187.815 12.6689 187.86 12.7198 187.86 12.8171V17.6293C187.86 17.7366 187.815 17.7926 187.729 17.7926H186.726C186.64 17.7926 186.596 17.7518 186.596 17.6701L186.056 14.1977C186.056 14.116 186.011 14.0751 185.921 14.0751H181.549C181.477 14.0751 181.441 14.1264 181.441 14.2285V31.8146C181.441 31.9066 181.486 31.9527 181.576 31.9627L184.131 32.2032C184.225 32.2133 184.275 32.2697 184.275 32.3669V33.1647C184.275 33.2616 184.225 33.3128 184.131 33.3128H176.394C176.3 33.3128 176.25 33.2616 176.25 33.1647V32.3669C176.25 32.2697 176.3 32.2133 176.394 32.2032L178.954 31.9627C179.039 31.9527 179.084 31.9066 179.084 31.8146V14.2285C179.084 14.1264 179.048 14.0751 178.976 14.0751H174.604C174.514 14.0751 174.474 14.116 174.474 14.1977L173.929 17.6701C173.929 17.7518 173.889 17.7926 173.799 17.7926H172.796C172.711 17.7926 172.666 17.7366 172.666 17.6293V12.8171C172.666 12.7198 172.711 12.6689 172.796 12.6689H187.729Z" fill="#1D2B38"/>
<path d="M194.067 18.0332C194.067 18.8105 194.206 19.475 194.49 20.0326C194.769 20.585 195.133 21.0349 195.583 21.3775C196.028 21.725 196.536 21.986 197.103 22.1597C197.67 22.3338 198.25 22.4207 198.848 22.4207H200.062C200.13 22.4207 200.166 22.3695 200.166 22.2722V14.2285C200.166 14.1264 200.121 14.0751 200.035 14.0751H199.059C198.376 14.0751 197.732 14.1212 197.13 14.2132C196.527 14.3001 195.996 14.4894 195.533 14.7808C195.074 15.0723 194.714 15.471 194.453 15.9773C194.197 16.4889 194.067 17.1741 194.067 18.0332ZM205.001 12.6689C205.091 12.6689 205.136 12.7198 205.136 12.8171V13.6096C205.136 13.7121 205.091 13.7633 205.001 13.7633L202.698 14.0187C202.608 14.0187 202.563 14.0648 202.563 14.1672V31.8146C202.563 31.9166 202.608 31.9627 202.698 31.9627L205.001 32.2032C205.091 32.2032 205.136 32.2593 205.136 32.3669V33.1647C205.136 33.2616 205.091 33.3128 205.001 33.3128H197.467C197.377 33.3128 197.332 33.2616 197.332 33.1647V32.3669C197.332 32.2593 197.377 32.2032 197.467 32.2032L200.035 31.9627C200.121 31.9627 200.166 31.9166 200.166 31.8146V23.8013C200.166 23.7604 200.153 23.7296 200.125 23.7092C200.103 23.6888 200.072 23.6788 200.035 23.6788H199.599C199.185 23.6788 198.799 23.7296 198.43 23.8269C198.056 23.9293 197.696 24.1235 197.346 24.4149C196.995 24.7015 196.649 25.1106 196.307 25.627C195.965 26.1485 195.619 26.8234 195.277 27.6672L192.96 33.1951C192.924 33.272 192.861 33.3128 192.776 33.3128H188.53C188.444 33.3128 188.399 33.2616 188.399 33.1647V32.3669C188.399 32.2593 188.444 32.2032 188.53 32.2032L190.509 31.9627C190.594 31.9627 190.657 31.9218 190.693 31.8454L193.064 26.7826C193.266 26.3735 193.464 25.9796 193.662 25.6117C193.86 25.2435 194.071 24.9161 194.296 24.6298C194.521 24.3485 194.782 24.0927 195.079 23.8677C195.38 23.6428 195.717 23.4534 196.095 23.3053C195.376 23.1672 194.724 22.9423 194.139 22.6404C193.554 22.3338 193.059 21.9451 192.65 21.4696C192.241 20.9941 191.926 20.4673 191.701 19.8893C191.476 19.3117 191.364 18.6824 191.364 18.0023C191.364 17.2046 191.516 16.4529 191.827 15.7472C192.133 15.0415 192.614 14.4278 193.262 13.8962C193.869 13.3951 194.615 13.0676 195.511 12.9091C196.401 12.7454 197.422 12.6689 198.574 12.6689H205.001Z" fill="#1D2B38"/>
<path d="M222.818 12.6696C222.908 12.6696 222.948 12.7205 222.948 12.8177V13.6103C222.948 13.7128 222.908 13.764 222.818 13.764L220.524 14.0194C220.429 14.0194 220.38 14.0654 220.38 14.1679V21.869C220.38 21.9662 220.42 22.0175 220.497 22.0175C221.001 22.0175 221.455 21.9406 221.869 21.7925C222.282 21.644 222.66 21.4138 223.002 21.102C223.344 20.795 223.65 20.4219 223.92 19.9924C224.185 19.5677 224.446 19.0666 224.702 18.499L226.02 15.3952C226.277 14.8276 226.533 14.3364 226.789 13.9273C227.05 13.5182 227.32 13.186 227.599 12.9302C227.882 12.6744 228.17 12.4907 228.471 12.3778C228.769 12.2605 229.079 12.2041 229.393 12.2041C229.524 12.2041 229.677 12.2193 229.848 12.2501C230.019 12.2809 230.194 12.327 230.374 12.3986C230.554 12.4699 230.72 12.5571 230.869 12.6592C231.017 12.7665 231.143 12.879 231.238 12.9967C231.256 13.0171 231.274 13.0631 231.292 13.14C231.31 13.2168 231.301 13.2628 231.265 13.2833L229.933 15.3339C229.861 15.436 229.803 15.4668 229.749 15.4256C229.591 15.2263 229.411 15.0625 229.214 14.94C229.016 14.812 228.818 14.7507 228.615 14.7507C228.328 14.7507 228.035 14.8736 227.738 15.119C227.446 15.3643 227.172 15.8143 226.915 16.4739L226.245 18.1207C226.043 18.5706 225.822 19.0258 225.593 19.4861C225.359 19.9464 225.111 20.3707 224.855 20.7594C224.594 21.1481 224.329 21.4855 224.055 21.7769C223.785 22.0683 223.519 22.2729 223.268 22.3905C223.627 22.5134 223.969 22.6615 224.293 22.8509C224.617 23.035 224.945 23.2856 225.269 23.6078C225.593 23.9248 225.903 24.3083 226.196 24.7582C226.492 25.2082 226.794 25.7453 227.1 26.3794L229.618 31.846C229.668 31.9225 229.731 31.9634 229.803 31.9634L231.777 32.2039C231.868 32.2039 231.908 32.26 231.908 32.3676V33.1654C231.908 33.2623 231.868 33.3135 231.777 33.3135H227.536C227.464 33.3135 227.406 33.2727 227.351 33.1958L224.887 27.2744C224.509 26.369 224.122 25.6481 223.726 25.1161C223.33 24.5897 222.948 24.1806 222.579 23.8992C222.21 23.613 221.851 23.4289 221.5 23.3416C221.149 23.26 220.825 23.2139 220.524 23.2139C220.429 23.2139 220.38 23.2652 220.38 23.3672V31.8152C220.38 31.9173 220.429 31.9634 220.524 31.9634L222.818 32.2039C222.908 32.2039 222.948 32.26 222.948 32.3676V33.1654C222.948 33.2623 222.908 33.3135 222.818 33.3135H215.634C215.549 33.3135 215.504 33.2623 215.504 33.1654V32.3676C215.504 32.26 215.549 32.2039 215.634 32.2039L217.928 31.9634C218.018 31.9634 218.059 31.9173 218.059 31.8152V23.3672C218.059 23.2652 218.018 23.2139 217.928 23.2139C217.623 23.2139 217.29 23.26 216.939 23.3416C216.588 23.4289 216.224 23.613 215.846 23.8992C215.468 24.1806 215.086 24.5897 214.699 25.1161C214.312 25.6481 213.93 26.369 213.552 27.2744L211.101 33.1958C211.069 33.2727 211.002 33.3135 210.907 33.3135H206.675C206.589 33.3135 206.544 33.2623 206.544 33.1654V32.3676C206.544 32.26 206.589 32.2039 206.675 32.2039L208.64 31.9634C208.735 31.9634 208.802 31.9225 208.838 31.846L211.339 26.3794C211.631 25.7453 211.933 25.2082 212.247 24.7582C212.567 24.3083 212.877 23.9248 213.179 23.6078C213.48 23.2856 213.799 23.035 214.132 22.8509C214.469 22.6615 214.816 22.5134 215.176 22.3905C214.919 22.2729 214.659 22.0683 214.388 21.7769C214.123 21.4855 213.858 21.1481 213.602 20.7594C213.341 20.3707 213.089 19.9464 212.841 19.4861C212.598 19.0258 212.387 18.5706 212.212 18.1207L211.537 16.4739C211.285 15.8347 211.002 15.39 210.696 15.1342C210.386 14.8788 210.102 14.7507 209.837 14.7507C209.634 14.7507 209.436 14.812 209.239 14.94C209.041 15.0625 208.861 15.2263 208.703 15.4256C208.627 15.4464 208.559 15.4156 208.506 15.3339L207.187 13.2833C207.174 13.2628 207.169 13.2168 207.174 13.14C207.183 13.0631 207.196 13.0171 207.214 12.9967C207.305 12.879 207.426 12.7665 207.579 12.6592C207.732 12.5571 207.898 12.4699 208.078 12.3986C208.258 12.327 208.433 12.2809 208.604 12.2501C208.775 12.2193 208.924 12.2041 209.045 12.2041C209.373 12.2041 209.684 12.2605 209.985 12.3778C210.282 12.4907 210.566 12.6744 210.831 12.9302C211.101 13.186 211.37 13.5182 211.645 13.9273C211.915 14.3364 212.176 14.8276 212.419 15.3952L213.75 18.499C213.979 19.0666 214.24 19.5677 214.528 19.9924C214.82 20.4219 215.131 20.795 215.459 21.102C215.788 21.4138 216.161 21.644 216.579 21.7925C216.997 21.9406 217.456 22.0175 217.955 22.0175C218.028 22.0175 218.059 21.9662 218.059 21.869V14.1679C218.059 14.0654 218.018 14.0194 217.928 14.0194L215.634 13.764C215.549 13.764 215.504 13.7128 215.504 13.6103V12.8177C215.504 12.7205 215.549 12.6696 215.634 12.6696H222.818Z" fill="#1D2B38"/>
<path d="M240.71 12.6696C240.8 12.6696 240.845 12.7205 240.845 12.8177V13.6103C240.845 13.7128 240.8 13.764 240.71 13.764L238.416 14.0194C238.33 14.0194 238.286 14.0654 238.286 14.1679V21.869C238.286 21.9662 238.322 22.0175 238.393 22.0175C238.965 22.0175 239.469 21.9406 239.914 21.7925C240.359 21.644 240.759 21.419 241.119 21.1172C241.479 20.8206 241.798 20.4475 242.073 20.0076C242.351 19.5677 242.617 19.0666 242.873 18.499L244.191 15.3952C244.443 14.8276 244.699 14.3364 244.96 13.9273C245.221 13.5182 245.491 13.186 245.77 12.9302C246.053 12.6744 246.341 12.4907 246.633 12.3778C246.931 12.2605 247.236 12.2041 247.565 12.2041C247.686 12.2041 247.834 12.2193 248.006 12.2501C248.176 12.2809 248.347 12.327 248.518 12.3986C248.689 12.4699 248.851 12.5571 249.004 12.6592C249.161 12.7665 249.287 12.879 249.395 12.9967C249.413 13.0171 249.431 13.0631 249.454 13.14C249.476 13.2168 249.467 13.2628 249.422 13.2833L248.104 15.3339C248.069 15.3952 248.032 15.436 247.996 15.4564C247.965 15.4768 247.929 15.4768 247.893 15.4564C247.727 15.2571 247.547 15.0882 247.358 14.9553C247.169 14.8172 246.98 14.7507 246.787 14.7507C246.512 14.7507 246.224 14.8736 245.914 15.119C245.608 15.3643 245.334 15.8143 245.086 16.4739L244.416 18.1207C244.214 18.591 243.993 19.0566 243.759 19.5217C243.53 19.9872 243.283 20.4115 243.017 20.795C242.752 21.1789 242.487 21.5111 242.221 21.7925C241.951 22.0735 241.69 22.2729 241.434 22.3905C241.794 22.5134 242.145 22.6615 242.477 22.8509C242.81 23.035 243.134 23.2856 243.453 23.6078C243.769 23.9248 244.074 24.3083 244.367 24.7582C244.664 25.2082 244.965 25.7453 245.271 26.3794L247.79 31.846C247.839 31.9225 247.902 31.9634 247.97 31.9634L249.935 32.2039C250.03 32.2039 250.079 32.26 250.079 32.3676V33.1654C250.079 33.2623 250.03 33.3135 249.935 33.3135H245.707C245.635 33.3135 245.568 33.2727 245.509 33.1958L243.058 27.2744C242.68 26.369 242.293 25.6481 241.897 25.1161C241.502 24.5897 241.106 24.1806 240.71 23.8992C240.314 23.613 239.923 23.4289 239.536 23.3416C239.153 23.26 238.78 23.2139 238.416 23.2139C238.33 23.2139 238.286 23.2652 238.286 23.3672V31.8152C238.286 31.9173 238.33 31.9634 238.416 31.9634L240.71 32.2039C240.8 32.2039 240.845 32.26 240.845 32.3676V33.1654C240.845 33.2623 240.8 33.3135 240.71 33.3135H233.45C233.36 33.3135 233.32 33.2623 233.32 33.1654V32.3676C233.32 32.26 233.36 32.2039 233.45 32.2039L235.744 31.9634C235.829 31.9634 235.875 31.9173 235.875 31.8152V14.1679C235.875 14.0654 235.829 14.0194 235.744 14.0194L233.45 13.764C233.36 13.764 233.32 13.7128 233.32 13.6103V12.8177C233.32 12.7205 233.36 12.6696 233.45 12.6696H240.71Z" fill="#1D2B38"/>
<path d="M258.684 12.6689C258.774 12.6689 258.814 12.7198 258.814 12.8171V13.6096C258.814 13.7121 258.774 13.7633 258.684 13.7633L256.525 14.0187C256.435 14.0187 256.39 14.0648 256.39 14.1672V27.8874L265.341 15.4557C265.381 15.4149 265.404 15.3637 265.404 15.3024V14.1672C265.404 14.0648 265.359 14.0187 265.26 14.0187L263.101 13.7633C263.01 13.7633 262.966 13.7121 262.966 13.6096V12.8171C262.966 12.7198 263.01 12.6689 263.101 12.6689H270.176C270.261 12.6689 270.306 12.7198 270.306 12.8171V13.6096C270.306 13.7121 270.261 13.7633 270.176 13.7633L267.882 14.0187C267.796 14.0187 267.751 14.0648 267.751 14.1672V31.8146C267.751 31.9166 267.796 31.9627 267.882 31.9627L270.176 32.2032C270.261 32.2032 270.306 32.2593 270.306 32.3669V33.1647C270.306 33.2616 270.261 33.3128 270.176 33.3128H263.101C263.01 33.3128 262.966 33.2616 262.966 33.1647V32.3669C262.966 32.2593 263.01 32.2032 263.101 32.2032L265.26 31.9627C265.359 31.9627 265.404 31.9166 265.404 31.8146V17.7005L256.444 30.1218C256.408 30.1626 256.39 30.2138 256.39 30.2703V31.8146C256.39 31.9166 256.435 31.9627 256.525 31.9627L258.684 32.2032C258.774 32.2032 258.814 32.2593 258.814 32.3669V33.1647C258.814 33.2616 258.774 33.3128 258.684 33.3128H251.608C251.519 33.3128 251.478 33.2616 251.478 33.1647V32.3669C251.478 32.2593 251.519 32.2032 251.608 32.2032L253.902 31.9627C253.988 31.9627 254.033 31.9166 254.033 31.8146V14.1672C254.033 14.0648 253.988 14.0187 253.902 14.0187L251.608 13.7633C251.519 13.7633 251.478 13.7121 251.478 13.6096V12.8171C251.478 12.7198 251.519 12.6689 251.608 12.6689H258.684Z" fill="#1D2B38"/>
<path d="M272.312 12.8171C272.312 12.7198 272.353 12.6689 272.443 12.6689H279.518C279.608 12.6689 279.648 12.7198 279.648 12.8171V13.6096C279.648 13.7121 279.608 13.7633 279.518 13.7633L277.359 14.0187C277.269 14.0187 277.224 14.0648 277.224 14.1672V21.5973C277.224 21.6586 277.238 21.6894 277.265 21.6894H285.937C285.955 21.669 285.963 21.6381 285.963 21.5973V14.1672C285.963 14.0648 285.919 14.0187 285.833 14.0187L283.67 13.7633C283.584 13.7633 283.539 13.7121 283.539 13.6096V12.8171C283.539 12.7198 283.584 12.6689 283.67 12.6689H290.745C290.835 12.6689 290.88 12.7198 290.88 12.8171V13.6096C290.88 13.7121 290.835 13.7633 290.745 13.7633L288.442 14.0187C288.352 14.0187 288.307 14.0648 288.307 14.1672V31.8146C288.307 31.9166 288.352 31.9627 288.442 31.9627L290.745 32.2032C290.835 32.2032 290.88 32.2593 290.88 32.3669V33.1647C290.88 33.2616 290.835 33.3128 290.745 33.3128H283.67C283.584 33.3128 283.539 33.2616 283.539 33.1647V32.3669C283.539 32.2593 283.584 32.2032 283.67 32.2032L285.833 31.9627C285.919 31.9627 285.963 31.9166 285.963 31.8146V23.2441C285.963 23.1468 285.919 23.0956 285.833 23.0956H277.359C277.269 23.0956 277.224 23.1468 277.224 23.2441V31.8146C277.224 31.9166 277.269 31.9627 277.359 31.9627L279.518 32.2032C279.608 32.2032 279.648 32.2593 279.648 32.3669V33.1647C279.648 33.2616 279.608 33.3128 279.518 33.3128H272.443C272.353 33.3128 272.312 33.2616 272.312 33.1647V32.3669C272.312 32.2593 272.353 32.2032 272.443 32.2032L274.737 31.9627C274.822 31.9627 274.867 31.9166 274.867 31.8146V14.1672C274.867 14.0648 274.822 14.0187 274.737 14.0187L272.443 13.7633C272.353 13.7633 272.312 13.7121 272.312 13.6096V12.8171Z" fill="#1D2B38"/>
<path d="M302.183 12.2041C304.909 12.2041 307.108 13.2216 308.786 15.2623C310.427 17.2461 311.251 19.7979 311.251 22.9173C311.251 26.0111 310.423 28.5729 308.772 30.6032C307.076 32.6999 304.881 33.7482 302.183 33.7482C299.479 33.7482 297.253 32.7355 295.517 30.7056C293.776 28.6806 292.908 26.1236 292.908 23.035C292.908 19.9208 293.763 17.3434 295.476 15.3031C297.222 13.2372 299.462 12.2041 302.183 12.2041ZM301.868 13.5847C299.848 13.5847 298.251 14.4849 297.082 16.295C296.039 17.9214 295.517 19.926 295.517 22.3037C295.517 24.0117 295.769 25.5916 296.281 27.0491C296.853 28.6702 297.685 29.9587 298.782 30.9254C299.88 31.8869 301.135 32.3676 302.538 32.3676C304.567 32.3676 306.132 31.4418 307.229 29.5856C308.17 27.9749 308.642 25.9551 308.642 23.5309C308.642 20.8154 308.048 18.5094 306.861 16.6224C305.588 14.5974 303.923 13.5847 301.868 13.5847Z" fill="#1D2B38"/>
<path d="M123.45 12.6689C123.536 12.6689 123.581 12.7198 123.581 12.8171V13.6096C123.581 13.7121 123.536 13.7633 123.45 13.7633L121.156 14.0187C121.057 14.0187 121.012 14.0648 121.012 14.1672V31.8146C121.012 31.9166 121.057 31.9627 121.156 31.9627L123.45 32.2032C123.536 32.2032 123.581 32.2593 123.581 32.3669V33.1647C123.581 33.2616 123.536 33.3128 123.45 33.3128H116.371C116.285 33.3128 116.24 33.2616 116.24 33.1647V32.3669C116.24 32.2593 116.285 32.2032 116.371 32.2032L118.534 31.9627C118.62 31.9627 118.664 31.9166 118.664 31.8146V14.2285C118.664 14.1264 118.62 14.0751 118.534 14.0751H110.496C110.46 14.0751 110.429 14.0803 110.402 14.0904C110.375 14.1008 110.361 14.1264 110.361 14.1672V31.8146C110.361 31.9166 110.406 31.9627 110.496 31.9627L112.655 32.2032C112.745 32.2032 112.786 32.2593 112.786 32.3669V33.1647C112.786 33.2616 112.745 33.3128 112.655 33.3128H105.58C105.49 33.3128 105.45 33.2616 105.45 33.1647V32.3669C105.45 32.2593 105.49 32.2032 105.58 32.2032L107.874 31.9627C107.959 31.9627 108.004 31.9166 108.004 31.8146V14.1672C108.004 14.0648 107.959 14.0187 107.874 14.0187L105.58 13.7633C105.49 13.7633 105.45 13.7121 105.45 13.6096V12.8171C105.45 12.7198 105.49 12.6689 105.58 12.6689H123.45Z" stroke="#1D2B38" stroke-width="0.288" stroke-miterlimit="22.9256"/>
<path d="M138.72 12.6689C138.81 12.6689 138.851 12.7198 138.851 12.8171V17.6293C138.851 17.7366 138.81 17.7926 138.72 17.7926H137.717C137.632 17.7926 137.587 17.7518 137.587 17.6701L137.047 14.1977C137.047 14.116 137.002 14.0751 136.917 14.0751H130.737C130.647 14.0751 130.601 14.1264 130.601 14.2285V21.807C130.601 21.9043 130.647 21.9552 130.737 21.9552H134.452C134.546 21.9552 134.596 21.9143 134.596 21.8379L134.861 19.3525C134.861 19.2705 134.906 19.2296 134.992 19.2296H135.729C135.819 19.2296 135.86 19.2809 135.86 19.3781V26.0461C135.86 26.1485 135.819 26.1946 135.729 26.1946H134.992C134.906 26.1946 134.861 26.1589 134.861 26.0769L134.596 23.4382C134.596 23.3513 134.546 23.3053 134.452 23.3053H130.737C130.647 23.3053 130.601 23.3617 130.601 23.469V31.7533C130.601 31.8554 130.647 31.9066 130.737 31.9066H137.285C137.38 31.9066 137.429 31.8658 137.429 31.7837L137.969 28.3677C137.969 28.2913 138.014 28.2504 138.1 28.2504H139.102C139.193 28.2504 139.233 28.2964 139.233 28.3985V33.1647C139.233 33.2616 139.193 33.3128 139.102 33.3128H125.82C125.73 33.3128 125.69 33.2616 125.69 33.1647V32.3669C125.69 32.2593 125.73 32.2032 125.82 32.2032L128.114 31.9627C128.2 31.9627 128.245 31.9166 128.245 31.8146V14.1056C128.209 14.0443 128.164 14.0187 128.114 14.0187L125.82 13.7633C125.73 13.7633 125.69 13.7121 125.69 13.6096V12.8171C125.69 12.7198 125.73 12.6689 125.82 12.6689H138.72Z" stroke="#1D2B38" stroke-width="0.288" stroke-miterlimit="22.9256"/>
<path d="M146.547 14.0751C146.461 14.0751 146.416 14.1264 146.416 14.2285V22.9475C146.416 23.0443 146.461 23.0956 146.547 23.0956H148.117C151.297 23.0956 152.889 21.5104 152.889 18.345C152.889 16.8059 152.39 15.6911 151.4 14.9906C150.536 14.3818 149.358 14.0751 147.865 14.0751H146.547V14.0751ZM148.328 12.6689C150.051 12.6689 151.351 12.8375 152.228 13.1749C154.45 14.0343 155.561 15.8188 155.561 18.5239C155.561 20.3344 154.85 21.8122 153.429 22.9627C152.16 23.9702 150.694 24.4918 149.025 24.5326L146.416 24.011V31.8146C146.416 31.9066 146.461 31.9527 146.547 31.9627L149.106 32.2032C149.2 32.2133 149.25 32.2697 149.25 32.3669V33.1647C149.25 33.2616 149.2 33.3128 149.106 33.3128H141.581C141.491 33.3128 141.451 33.2616 141.451 33.1647V32.3669C141.451 32.2593 141.491 32.2032 141.581 32.2032L143.875 31.9627C143.96 31.9627 144.005 31.9166 144.005 31.8146V14.1672C144.005 14.0648 143.96 14.0187 143.875 14.0187L141.581 13.7633C141.491 13.7633 141.451 13.7121 141.451 13.6096V12.8171C141.451 12.7198 141.491 12.6689 141.581 12.6689H148.328V12.6689Z" stroke="#1D2B38" stroke-width="0.288" stroke-miterlimit="22.9256"/>
<path d="M170.399 12.6689C170.489 12.6689 170.529 12.7198 170.529 12.8171V17.6293C170.529 17.7366 170.489 17.7926 170.399 17.7926H169.396C169.311 17.7926 169.266 17.7518 169.266 17.6701L168.726 14.1977C168.726 14.116 168.681 14.0751 168.595 14.0751H162.415C162.325 14.0751 162.28 14.1264 162.28 14.2285V21.807C162.28 21.9043 162.325 21.9552 162.415 21.9552H166.131C166.225 21.9552 166.275 21.9143 166.275 21.8379L166.54 19.3525C166.54 19.2705 166.585 19.2296 166.67 19.2296H167.408C167.498 19.2296 167.539 19.2809 167.539 19.3781V26.0461C167.539 26.1485 167.498 26.1946 167.408 26.1946H166.67C166.585 26.1946 166.54 26.1589 166.54 26.0769L166.275 23.4382C166.275 23.3513 166.225 23.3053 166.131 23.3053H162.415C162.325 23.3053 162.28 23.3617 162.28 23.469V31.7533C162.28 31.8554 162.325 31.9066 162.415 31.9066H168.964C169.059 31.9066 169.108 31.8658 169.108 31.7837L169.648 28.3677C169.648 28.2913 169.693 28.2504 169.778 28.2504H170.781C170.871 28.2504 170.912 28.2964 170.912 28.3985V33.1647C170.912 33.2616 170.871 33.3128 170.781 33.3128H157.499C157.409 33.3128 157.369 33.2616 157.369 33.1647V32.3669C157.369 32.2593 157.409 32.2032 157.499 32.2032L159.793 31.9627C159.878 31.9627 159.923 31.9166 159.923 31.8146V14.1056C159.887 14.0443 159.842 14.0187 159.793 14.0187L157.499 13.7633C157.409 13.7633 157.369 13.7121 157.369 13.6096V12.8171C157.369 12.7198 157.409 12.6689 157.499 12.6689H170.399Z" stroke="#1D2B38" stroke-width="0.288" stroke-miterlimit="22.9256"/>
<path d="M187.729 12.6689C187.815 12.6689 187.86 12.7198 187.86 12.8171V17.6293C187.86 17.7366 187.815 17.7926 187.729 17.7926H186.726C186.64 17.7926 186.596 17.7518 186.596 17.6701L186.056 14.1977C186.056 14.116 186.011 14.0751 185.921 14.0751H181.549C181.477 14.0751 181.441 14.1264 181.441 14.2285V31.8146C181.441 31.9066 181.486 31.9527 181.576 31.9627L184.131 32.2032C184.225 32.2133 184.275 32.2697 184.275 32.3669V33.1647C184.275 33.2616 184.225 33.3128 184.131 33.3128H176.394C176.3 33.3128 176.25 33.2616 176.25 33.1647V32.3669C176.25 32.2697 176.3 32.2133 176.394 32.2032L178.954 31.9627C179.039 31.9527 179.084 31.9066 179.084 31.8146V14.2285C179.084 14.1264 179.048 14.0751 178.976 14.0751H174.604C174.514 14.0751 174.474 14.116 174.474 14.1977L173.929 17.6701C173.929 17.7518 173.889 17.7926 173.799 17.7926H172.796C172.711 17.7926 172.666 17.7366 172.666 17.6293V12.8171C172.666 12.7198 172.711 12.6689 172.796 12.6689H187.729V12.6689Z" stroke="#1D2B38" stroke-width="0.288" stroke-miterlimit="22.9256"/>
<path d="M194.067 18.0332C194.067 18.8105 194.206 19.475 194.49 20.0326C194.769 20.585 195.133 21.0349 195.583 21.3775C196.028 21.725 196.536 21.986 197.103 22.1597C197.67 22.3338 198.25 22.4207 198.848 22.4207H200.062C200.13 22.4207 200.166 22.3695 200.166 22.2722V14.2285C200.166 14.1264 200.121 14.0751 200.035 14.0751H199.059C198.376 14.0751 197.732 14.1212 197.13 14.2132C196.527 14.3001 195.996 14.4894 195.533 14.7808C195.074 15.0723 194.714 15.471 194.453 15.9773C194.197 16.4889 194.067 17.1741 194.067 18.0332V18.0332ZM205.001 12.6689C205.091 12.6689 205.136 12.7198 205.136 12.8171V13.6096C205.136 13.7121 205.091 13.7633 205.001 13.7633L202.698 14.0187C202.608 14.0187 202.563 14.0648 202.563 14.1672V31.8146C202.563 31.9166 202.608 31.9627 202.698 31.9627L205.001 32.2032C205.091 32.2032 205.136 32.2593 205.136 32.3669V33.1647C205.136 33.2616 205.091 33.3128 205.001 33.3128H197.467C197.377 33.3128 197.332 33.2616 197.332 33.1647V32.3669C197.332 32.2593 197.377 32.2032 197.467 32.2032L200.035 31.9627C200.121 31.9627 200.166 31.9166 200.166 31.8146V23.8013C200.166 23.7604 200.153 23.7296 200.125 23.7092C200.103 23.6888 200.072 23.6788 200.035 23.6788H199.599C199.185 23.6788 198.798 23.7296 198.43 23.8269C198.056 23.9293 197.696 24.1235 197.346 24.4149C196.995 24.7015 196.649 25.1106 196.307 25.627C195.965 26.1485 195.619 26.8234 195.277 27.6672L192.96 33.1951C192.924 33.272 192.861 33.3128 192.776 33.3128H188.53C188.444 33.3128 188.399 33.2616 188.399 33.1647V32.3669C188.399 32.2593 188.444 32.2032 188.53 32.2032L190.509 31.9627C190.594 31.9627 190.657 31.9218 190.693 31.8454L193.064 26.7826C193.266 26.3735 193.464 25.9796 193.662 25.6117C193.86 25.2435 194.071 24.9161 194.296 24.6298C194.521 24.3485 194.782 24.0927 195.079 23.8677C195.38 23.6428 195.717 23.4534 196.095 23.3053C195.376 23.1672 194.724 22.9423 194.139 22.6404C193.554 22.3338 193.059 21.9451 192.65 21.4696C192.241 20.9941 191.926 20.4673 191.701 19.8893C191.476 19.3117 191.364 18.6824 191.364 18.0023C191.364 17.2046 191.516 16.4529 191.827 15.7472C192.133 15.0415 192.614 14.4278 193.262 13.8962C193.869 13.3951 194.615 13.0676 195.511 12.9091C196.401 12.7454 197.422 12.6689 198.574 12.6689H205.001V12.6689Z" stroke="#1D2B38" stroke-width="0.288" stroke-miterlimit="22.9256"/>
<path d="M222.818 12.6696C222.908 12.6696 222.948 12.7205 222.948 12.8177V13.6103C222.948 13.7128 222.908 13.764 222.818 13.764L220.524 14.0194C220.429 14.0194 220.38 14.0654 220.38 14.1679V21.869C220.38 21.9662 220.42 22.0175 220.497 22.0175C221.001 22.0175 221.455 21.9406 221.869 21.7925C222.282 21.644 222.66 21.4138 223.002 21.102C223.344 20.795 223.65 20.4219 223.92 19.9924C224.185 19.5677 224.446 19.0666 224.702 18.499L226.02 15.3952C226.277 14.8276 226.533 14.3364 226.789 13.9273C227.05 13.5182 227.32 13.186 227.599 12.9302C227.882 12.6744 228.17 12.4907 228.471 12.3778C228.769 12.2605 229.079 12.2041 229.394 12.2041C229.524 12.2041 229.677 12.2193 229.848 12.2501C230.019 12.2809 230.194 12.327 230.374 12.3986C230.554 12.4699 230.72 12.5571 230.869 12.6592C231.017 12.7665 231.143 12.879 231.238 12.9967C231.256 13.0171 231.274 13.0631 231.292 13.14C231.31 13.2168 231.301 13.2628 231.265 13.2833L229.933 15.3339C229.861 15.436 229.803 15.4668 229.749 15.4256C229.591 15.2263 229.411 15.0625 229.214 14.94C229.016 14.812 228.818 14.7507 228.615 14.7507C228.328 14.7507 228.035 14.8736 227.738 15.119C227.446 15.3643 227.172 15.8143 226.915 16.4739L226.245 18.1207C226.043 18.5706 225.822 19.0258 225.593 19.4861C225.359 19.9464 225.111 20.3707 224.855 20.7594C224.594 21.1481 224.329 21.4855 224.055 21.7769C223.785 22.0683 223.519 22.2729 223.268 22.3905C223.627 22.5134 223.969 22.6615 224.293 22.8509C224.617 23.035 224.945 23.2856 225.269 23.6078C225.593 23.9248 225.903 24.3083 226.196 24.7582C226.492 25.2082 226.794 25.7453 227.1 26.3794L229.618 31.846C229.668 31.9225 229.731 31.9634 229.803 31.9634L231.777 32.2039C231.868 32.2039 231.908 32.26 231.908 32.3676V33.1654C231.908 33.2623 231.868 33.3135 231.777 33.3135H227.536C227.464 33.3135 227.406 33.2727 227.351 33.1958L224.887 27.2744C224.509 26.369 224.122 25.6481 223.726 25.1161C223.33 24.5897 222.948 24.1806 222.579 23.8992C222.21 23.613 221.851 23.4289 221.5 23.3416C221.149 23.26 220.825 23.2139 220.524 23.2139C220.429 23.2139 220.38 23.2652 220.38 23.3672V31.8152C220.38 31.9173 220.429 31.9634 220.524 31.9634L222.818 32.2039C222.908 32.2039 222.948 32.26 222.948 32.3676V33.1654C222.948 33.2623 222.908 33.3135 222.818 33.3135H215.634C215.549 33.3135 215.504 33.2623 215.504 33.1654V32.3676C215.504 32.26 215.549 32.2039 215.634 32.2039L217.928 31.9634C218.018 31.9634 218.059 31.9173 218.059 31.8152V23.3672C218.059 23.2652 218.018 23.2139 217.928 23.2139C217.623 23.2139 217.29 23.26 216.939 23.3416C216.588 23.4289 216.224 23.613 215.846 23.8992C215.468 24.1806 215.086 24.5897 214.699 25.1161C214.312 25.6481 213.93 26.369 213.552 27.2744L211.101 33.1958C211.069 33.2727 211.002 33.3135 210.907 33.3135H206.675C206.589 33.3135 206.544 33.2623 206.544 33.1654V32.3676C206.544 32.26 206.589 32.2039 206.675 32.2039L208.64 31.9634C208.735 31.9634 208.802 31.9225 208.838 31.846L211.339 26.3794C211.631 25.7453 211.933 25.2082 212.247 24.7582C212.567 24.3083 212.877 23.9248 213.179 23.6078C213.48 23.2856 213.799 23.035 214.132 22.8509C214.469 22.6615 214.816 22.5134 215.176 22.3905C214.919 22.2729 214.659 22.0683 214.388 21.7769C214.123 21.4855 213.858 21.1481 213.602 20.7594C213.341 20.3707 213.089 19.9464 212.841 19.4861C212.598 19.0258 212.387 18.5706 212.212 18.1207L211.537 16.4739C211.285 15.8347 211.002 15.39 210.696 15.1342C210.386 14.8788 210.102 14.7507 209.837 14.7507C209.634 14.7507 209.436 14.812 209.239 14.94C209.041 15.0625 208.861 15.2263 208.703 15.4256C208.627 15.4464 208.559 15.4156 208.506 15.3339L207.187 13.2833C207.174 13.2628 207.169 13.2168 207.174 13.14C207.183 13.0631 207.196 13.0171 207.214 12.9967C207.305 12.879 207.426 12.7665 207.579 12.6592C207.732 12.5571 207.898 12.4699 208.078 12.3986C208.258 12.327 208.433 12.2809 208.604 12.2501C208.775 12.2193 208.924 12.2041 209.045 12.2041C209.373 12.2041 209.684 12.2605 209.985 12.3778C210.282 12.4907 210.566 12.6744 210.831 12.9302C211.101 13.186 211.37 13.5182 211.645 13.9273C211.915 14.3364 212.176 14.8276 212.419 15.3952L213.75 18.499C213.979 19.0666 214.24 19.5677 214.528 19.9924C214.82 20.4219 215.131 20.795 215.459 21.102C215.788 21.4138 216.161 21.644 216.579 21.7925C216.997 21.9406 217.456 22.0175 217.955 22.0175C218.028 22.0175 218.059 21.9662 218.059 21.869V14.1679C218.059 14.0654 218.018 14.0194 217.928 14.0194L215.634 13.764C215.549 13.764 215.504 13.7128 215.504 13.6103V12.8177C215.504 12.7205 215.549 12.6696 215.634 12.6696H222.818V12.6696Z" stroke="#1D2B38" stroke-width="0.288" stroke-miterlimit="22.9256"/>
<path d="M240.71 12.6696C240.8 12.6696 240.845 12.7205 240.845 12.8177V13.6103C240.845 13.7128 240.8 13.764 240.71 13.764L238.416 14.0194C238.33 14.0194 238.286 14.0654 238.286 14.1679V21.869C238.286 21.9662 238.322 22.0175 238.393 22.0175C238.965 22.0175 239.469 21.9406 239.914 21.7925C240.359 21.644 240.759 21.419 241.119 21.1172C241.479 20.8206 241.798 20.4475 242.073 20.0076C242.351 19.5677 242.617 19.0666 242.873 18.499L244.191 15.3952C244.443 14.8276 244.699 14.3364 244.96 13.9273C245.221 13.5182 245.491 13.186 245.77 12.9302C246.053 12.6744 246.341 12.4907 246.633 12.3778C246.931 12.2605 247.236 12.2041 247.565 12.2041C247.686 12.2041 247.834 12.2193 248.006 12.2501C248.176 12.2809 248.347 12.327 248.518 12.3986C248.689 12.4699 248.851 12.5571 249.004 12.6592C249.161 12.7665 249.287 12.879 249.395 12.9967C249.413 13.0171 249.431 13.0631 249.454 13.14C249.476 13.2168 249.467 13.2628 249.422 13.2833L248.104 15.3339C248.069 15.3952 248.032 15.436 247.996 15.4564C247.965 15.4768 247.929 15.4768 247.893 15.4564C247.727 15.2571 247.547 15.0882 247.358 14.9553C247.169 14.8172 246.98 14.7507 246.787 14.7507C246.512 14.7507 246.224 14.8736 245.914 15.119C245.608 15.3643 245.334 15.8143 245.086 16.4739L244.416 18.1207C244.214 18.591 243.993 19.0566 243.759 19.5217C243.53 19.9872 243.283 20.4115 243.017 20.795C242.752 21.1789 242.487 21.5111 242.221 21.7925C241.951 22.0735 241.69 22.2729 241.434 22.3905C241.794 22.5134 242.145 22.6615 242.477 22.8509C242.81 23.035 243.134 23.2856 243.453 23.6078C243.769 23.9248 244.074 24.3083 244.367 24.7582C244.664 25.2082 244.965 25.7453 245.271 26.3794L247.79 31.846C247.839 31.9225 247.902 31.9634 247.97 31.9634L249.935 32.2039C250.03 32.2039 250.079 32.26 250.079 32.3676V33.1654C250.079 33.2623 250.03 33.3135 249.935 33.3135H245.707C245.635 33.3135 245.568 33.2727 245.509 33.1958L243.058 27.2744C242.68 26.369 242.293 25.6481 241.897 25.1161C241.502 24.5897 241.106 24.1806 240.71 23.8992C240.314 23.613 239.923 23.4289 239.536 23.3416C239.153 23.26 238.78 23.2139 238.416 23.2139C238.33 23.2139 238.286 23.2652 238.286 23.3672V31.8152C238.286 31.9173 238.33 31.9634 238.416 31.9634L240.71 32.2039C240.8 32.2039 240.845 32.26 240.845 32.3676V33.1654C240.845 33.2623 240.8 33.3135 240.71 33.3135H233.45C233.36 33.3135 233.32 33.2623 233.32 33.1654V32.3676C233.32 32.26 233.36 32.2039 233.45 32.2039L235.744 31.9634C235.829 31.9634 235.875 31.9173 235.875 31.8152V14.1679C235.875 14.0654 235.829 14.0194 235.744 14.0194L233.45 13.764C233.36 13.764 233.32 13.7128 233.32 13.6103V12.8177C233.32 12.7205 233.36 12.6696 233.45 12.6696H240.71V12.6696Z" stroke="#1D2B38" stroke-width="0.288" stroke-miterlimit="22.9256"/>
<path d="M258.684 12.6689C258.774 12.6689 258.814 12.7198 258.814 12.8171V13.6096C258.814 13.7121 258.774 13.7633 258.684 13.7633L256.525 14.0187C256.435 14.0187 256.39 14.0648 256.39 14.1672V27.8874L265.341 15.4557C265.381 15.4149 265.404 15.3637 265.404 15.3024V14.1672C265.404 14.0648 265.359 14.0187 265.26 14.0187L263.101 13.7633C263.01 13.7633 262.966 13.7121 262.966 13.6096V12.8171C262.966 12.7198 263.01 12.6689 263.101 12.6689H270.176C270.261 12.6689 270.306 12.7198 270.306 12.8171V13.6096C270.306 13.7121 270.261 13.7633 270.176 13.7633L267.882 14.0187C267.796 14.0187 267.751 14.0648 267.751 14.1672V31.8146C267.751 31.9166 267.796 31.9627 267.882 31.9627L270.176 32.2032C270.261 32.2032 270.306 32.2593 270.306 32.3669V33.1647C270.306 33.2616 270.261 33.3128 270.176 33.3128H263.101C263.01 33.3128 262.966 33.2616 262.966 33.1647V32.3669C262.966 32.2593 263.01 32.2032 263.101 32.2032L265.26 31.9627C265.359 31.9627 265.404 31.9166 265.404 31.8146V17.7005L256.444 30.1218C256.408 30.1626 256.39 30.2138 256.39 30.2703V31.8146C256.39 31.9166 256.435 31.9627 256.525 31.9627L258.684 32.2032C258.774 32.2032 258.814 32.2593 258.814 32.3669V33.1647C258.814 33.2616 258.774 33.3128 258.684 33.3128H251.608C251.519 33.3128 251.478 33.2616 251.478 33.1647V32.3669C251.478 32.2593 251.519 32.2032 251.608 32.2032L253.902 31.9627C253.988 31.9627 254.033 31.9166 254.033 31.8146V14.1672C254.033 14.0648 253.988 14.0187 253.902 14.0187L251.608 13.7633C251.519 13.7633 251.478 13.7121 251.478 13.6096V12.8171C251.478 12.7198 251.519 12.6689 251.608 12.6689H258.684V12.6689Z" stroke="#1D2B38" stroke-width="0.288" stroke-miterlimit="22.9256"/>
<path d="M272.312 12.8171C272.312 12.7198 272.353 12.6689 272.443 12.6689H279.518C279.608 12.6689 279.648 12.7198 279.648 12.8171V13.6096C279.648 13.7121 279.608 13.7633 279.518 13.7633L277.359 14.0187C277.269 14.0187 277.224 14.0648 277.224 14.1672V21.5973C277.224 21.6586 277.238 21.6894 277.265 21.6894H285.937C285.955 21.6689 285.963 21.6381 285.963 21.5973V14.1672C285.963 14.0648 285.919 14.0187 285.833 14.0187L283.67 13.7633C283.584 13.7633 283.539 13.7121 283.539 13.6096V12.8171C283.539 12.7198 283.584 12.6689 283.67 12.6689H290.745C290.835 12.6689 290.88 12.7198 290.88 12.8171V13.6096C290.88 13.7121 290.835 13.7633 290.745 13.7633L288.442 14.0187C288.352 14.0187 288.307 14.0648 288.307 14.1672V31.8146C288.307 31.9166 288.352 31.9627 288.442 31.9627L290.745 32.2032C290.835 32.2032 290.88 32.2593 290.88 32.3669V33.1647C290.88 33.2616 290.835 33.3128 290.745 33.3128H283.67C283.584 33.3128 283.539 33.2616 283.539 33.1647V32.3669C283.539 32.2593 283.584 32.2032 283.67 32.2032L285.833 31.9627C285.919 31.9627 285.963 31.9166 285.963 31.8146V23.2441C285.963 23.1468 285.919 23.0956 285.833 23.0956H277.359C277.269 23.0956 277.224 23.1468 277.224 23.2441V31.8146C277.224 31.9166 277.269 31.9627 277.359 31.9627L279.518 32.2032C279.608 32.2032 279.648 32.2593 279.648 32.3669V33.1647C279.648 33.2616 279.608 33.3128 279.518 33.3128H272.443C272.353 33.3128 272.312 33.2616 272.312 33.1647V32.3669C272.312 32.2593 272.353 32.2032 272.443 32.2032L274.737 31.9627C274.822 31.9627 274.867 31.9166 274.867 31.8146V14.1672C274.867 14.0648 274.822 14.0187 274.737 14.0187L272.443 13.7633C272.353 13.7633 272.312 13.7121 272.312 13.6096V12.8171Z" stroke="#1D2B38" stroke-width="0.288" stroke-miterlimit="22.9256"/>
<path d="M302.183 12.2041C304.909 12.2041 307.108 13.2216 308.786 15.2623C310.427 17.2461 311.251 19.7979 311.251 22.9173C311.251 26.0111 310.423 28.5729 308.772 30.6032C307.076 32.6999 304.881 33.7482 302.183 33.7482C299.479 33.7482 297.253 32.7355 295.517 30.7056C293.776 28.6806 292.908 26.1236 292.908 23.035C292.908 19.9208 293.763 17.3434 295.476 15.3031C297.222 13.2372 299.462 12.2041 302.183 12.2041ZM301.868 13.5847C299.848 13.5847 298.251 14.4849 297.082 16.295C296.039 17.9214 295.517 19.926 295.517 22.3037C295.517 24.0117 295.769 25.5916 296.281 27.0491C296.853 28.6702 297.685 29.9587 298.782 30.9254C299.88 31.8869 301.135 32.3676 302.538 32.3676C304.567 32.3676 306.132 31.4418 307.229 29.5856C308.17 27.9749 308.642 25.9551 308.642 23.5309C308.642 20.8154 308.048 18.5094 306.861 16.6224C305.588 14.5974 303.923 13.5847 301.868 13.5847V13.5847Z" stroke="#1D2B38" stroke-width="0.288" stroke-miterlimit="22.9256"/>
<path d="M111.874 44.1519H105.45V54.3777H106.131V44.8821H111.181V54.3777H111.874V44.1519Z" fill="#4D4D4D"/>
<path d="M116.86 46.9126C114.894 46.9126 113.532 48.5779 113.532 50.7255C113.532 52.9313 114.933 54.5383 116.911 54.5383C118.183 54.5383 119.185 53.8809 119.712 52.8875L119.147 52.5077C118.774 53.2821 117.978 53.8371 116.924 53.8371C115.459 53.8371 114.354 52.7561 114.2 51.1052H120.021C120.021 50.9883 120.033 50.8717 120.033 50.7548C120.033 48.7531 118.813 46.9126 116.86 46.9126ZM116.86 47.6138C118.119 47.6138 119.224 48.6072 119.365 50.3895H114.2C114.328 48.768 115.395 47.6138 116.86 47.6138Z" fill="#4D4D4D"/>
<path d="M124.942 46.9126C123.695 46.9126 122.706 47.6432 122.179 48.768V47.0733H121.537V57.2991H122.179V52.6829C122.706 53.8078 123.695 54.5383 124.942 54.5383C126.779 54.5383 128.27 52.8875 128.27 50.7255C128.27 48.5634 126.779 46.9126 124.942 46.9126ZM124.903 53.8371C123.374 53.8371 122.179 52.4639 122.179 50.7255C122.179 48.987 123.374 47.6138 124.903 47.6138C126.432 47.6138 127.627 48.987 127.627 50.7255C127.627 52.4639 126.432 53.8371 124.903 53.8371Z" fill="#4D4D4D"/>
<path d="M132.716 46.9126C130.75 46.9126 129.388 48.5779 129.388 50.7255C129.388 52.9313 130.788 54.5383 132.767 54.5383C134.039 54.5383 135.041 53.8809 135.568 52.8875L135.003 52.5077C134.63 53.2821 133.834 53.8371 132.78 53.8371C131.315 53.8371 130.21 52.7561 130.056 51.1052H135.877C135.877 50.9883 135.889 50.8717 135.889 50.7548C135.889 48.7531 134.669 46.9126 132.716 46.9126ZM132.716 47.6138C133.975 47.6138 135.08 48.6072 135.221 50.3895H130.056C130.184 48.768 131.251 47.6138 132.716 47.6138Z" fill="#4D4D4D"/>
<path d="M141.633 47.0742H136.313V47.7899H138.652V54.3785H139.294V47.7899H141.633V47.0742Z" fill="#4D4D4D"/>
<path d="M146.85 47.0742H144.305C143.162 47.0742 142.185 47.9652 142.185 49.3094C142.185 50.5363 143.008 51.3838 144.023 51.5152L141.967 54.3785H142.802L144.819 51.5297H146.207V54.3785H146.85V47.0742ZM144.305 50.8284C143.496 50.8284 142.841 50.2441 142.841 49.3094C142.841 48.3891 143.496 47.7899 144.305 47.7899H146.207V50.8284H144.305Z" fill="#4D4D4D"/>
<path d="M156.062 54.3785L153.03 50.5801L155.934 47.0742H155.137L152.426 50.3759V47.0742H151.771V50.3759L149.059 47.0742H148.263L151.18 50.5801L148.134 54.3785H148.931L151.771 50.7846V54.3785H152.426V50.7846L155.266 54.3785H156.062Z" fill="#4D4D4D"/>
<path d="M162.269 54.3785L158.684 50.5801L162.14 47.0742H161.241L157.99 50.3904V47.0742H157.347V54.3785H157.99V50.7846L161.395 54.3785H162.269Z" fill="#4D4D4D"/>
<path d="M168.565 47.0733V48.7242C168.025 47.6283 167.036 46.9126 165.802 46.9126C163.977 46.9126 162.474 48.5634 162.474 50.7255C162.474 52.8875 163.977 54.5383 165.802 54.5383C167.036 54.5383 168.025 53.8226 168.565 52.7267V54.3776H169.22V47.0733H168.565ZM165.854 53.8371C164.325 53.8371 163.129 52.4639 163.129 50.7255C163.129 48.987 164.325 47.6138 165.854 47.6138C167.383 47.6138 168.565 48.987 168.565 50.7255C168.565 52.4639 167.383 53.8371 165.854 53.8371Z" fill="#4D4D4D"/>
<path d="M179.371 47.0742L175.272 53.1074V47.0742H174.629V54.3785H175.195L179.281 48.3453V54.3785H179.936V47.0742H179.371Z" fill="#4D4D4D"/>
<path d="M188.751 46.9126C187.505 46.9126 186.515 47.6432 185.989 48.768V47.0733H185.346V57.2991H185.989V52.6829C186.515 53.8078 187.505 54.5383 188.751 54.5383C190.589 54.5383 192.079 52.8875 192.079 50.7255C192.079 48.5634 190.589 46.9126 188.751 46.9126ZM188.713 53.8371C187.184 53.8371 185.989 52.4639 185.989 50.7255C185.989 48.987 187.184 47.6138 188.713 47.6138C190.242 47.6138 191.437 48.987 191.437 50.7255C191.437 52.4639 190.242 53.8371 188.713 53.8371Z" fill="#4D4D4D"/>
<path d="M196.525 46.9126C194.559 46.9126 193.197 48.5779 193.197 50.7255C193.197 52.9313 194.598 54.5383 196.576 54.5383C197.848 54.5383 198.851 53.8809 199.377 52.8875L198.812 52.5077C198.439 53.2821 197.643 53.8371 196.589 53.8371C195.124 53.8371 194.019 52.7561 193.865 51.1052H199.686C199.686 50.9883 199.698 50.8717 199.698 50.7548C199.698 48.7531 198.478 46.9126 196.525 46.9126ZM196.525 47.6138C197.784 47.6138 198.889 48.6072 199.03 50.3895H193.865C193.993 48.768 195.06 47.6138 196.525 47.6138Z" fill="#4D4D4D"/>
<path d="M207.408 47.0742H206.637L204.299 51.2668L201.96 47.0742H201.202V54.3785H201.845V48.1552L204.26 52.4941H204.35L206.753 48.1846V54.3785H207.408V47.0742Z" fill="#4D4D4D"/>
<path d="M212.33 54.5383C214.193 54.5383 215.696 52.8875 215.696 50.7255C215.696 48.5634 214.193 46.9126 212.33 46.9126C210.454 46.9126 208.95 48.5634 208.95 50.7255C208.95 52.8875 210.454 54.5383 212.33 54.5383ZM212.33 53.8371C210.801 53.8371 209.606 52.4639 209.606 50.7255C209.606 48.987 210.801 47.6138 212.33 47.6138C213.859 47.6138 215.041 48.987 215.041 50.7255C215.041 52.4639 213.859 53.8371 212.33 53.8371Z" fill="#4D4D4D"/>
<path d="M221.889 47.0742V50.3759H217.88V47.0742H217.238V54.3785H217.88V51.0768H221.889V54.3785H222.544V47.0742H221.889Z" fill="#4D4D4D"/>
<path d="M229.021 47.0742H223.701V47.7899H226.04V54.3785H226.682V47.7899H229.021V47.0742Z" fill="#4D4D4D"/>
<path d="M239.814 47.0742H239.043L236.705 51.2668L234.366 47.0742H233.608V54.3785H234.25V48.1552L236.666 52.4941H236.756L239.159 48.1846V54.3785H239.814V47.0742Z" fill="#4D4D4D"/>
<path d="M244.684 46.9126C242.718 46.9126 241.356 48.5779 241.356 50.7255C241.356 52.9313 242.757 54.5383 244.735 54.5383C246.008 54.5383 247.01 53.8809 247.536 52.8875L246.971 52.5077C246.599 53.2821 245.802 53.8371 244.748 53.8371C243.283 53.8371 242.178 52.7561 242.024 51.1052H247.845C247.845 50.9883 247.858 50.8717 247.858 50.7548C247.858 48.7531 246.637 46.9126 244.684 46.9126ZM244.684 47.6138C245.943 47.6138 247.048 48.6072 247.19 50.3895H242.024C242.153 48.768 243.219 47.6138 244.684 47.6138Z" fill="#4D4D4D"/>
<path d="M252.162 54.5525C253.974 54.5525 255.285 53.1062 255.285 51.1487C255.285 49.1475 254 47.7305 252.304 47.7305C251.417 47.7305 250.325 48.1834 249.683 49.3227C249.888 48.0371 250.415 47.3797 251.674 46.7371C252.985 46.0503 254.334 45.6999 254.552 44.2974L254.038 43.9614C253.858 45.2032 252.728 45.3932 251.327 46.1528C249.284 47.2921 248.924 48.5193 248.924 50.7983C248.924 53.0624 250.338 54.5525 252.162 54.5525ZM252.162 53.8223C250.698 53.8223 249.618 52.6388 249.618 50.959C249.721 49.4103 250.98 48.4462 252.227 48.4462C253.653 48.4462 254.629 49.5859 254.629 51.1487C254.629 52.6975 253.614 53.8223 252.162 53.8223Z" fill="#4D4D4D"/>
<path d="M259.589 46.9126C257.623 46.9126 256.261 48.5779 256.261 50.7255C256.261 52.9313 257.662 54.5383 259.641 54.5383C260.913 54.5383 261.915 53.8809 262.442 52.8875L261.876 52.5077C261.504 53.2821 260.707 53.8371 259.653 53.8371C258.189 53.8371 257.084 52.7561 256.929 51.1052H262.75C262.75 50.9883 262.763 50.8717 262.763 50.7548C262.763 48.7531 261.542 46.9126 259.589 46.9126ZM259.589 47.6138C260.849 47.6138 261.953 48.6072 262.095 50.3895H256.929C257.058 48.768 258.124 47.6138 259.589 47.6138Z" fill="#4D4D4D"/>
<path d="M269.226 47.0742H264.703V51.3107C264.703 53.195 264.176 53.7942 263.187 53.6917V54.3785C264.395 54.4806 265.346 53.8673 265.346 51.3107V47.7899H268.583V54.3785H269.226V47.0742Z" fill="#4D4D4D"/>
<path d="M275.946 47.0742L271.847 53.1074V47.0742H271.205V54.3785H271.77L275.856 48.3453V54.3785H276.511V47.0742H275.946Z" fill="#4D4D4D"/>
</svg>
