<svg width="36" height="36" viewBox="0 0 36 36" fill="none" xmlns="http://www.w3.org/2000/svg">
<path d="M18.0001 14.8758C16.2798 14.8758 14.8759 16.2797 14.8759 18C14.8759 19.7203 16.2798 21.1242 18.0001 21.1242C19.7204 21.1242 21.1243 19.7203 21.1243 18C21.1243 16.2797 19.7204 14.8758 18.0001 14.8758ZM27.3704 18C27.3704 16.7063 27.3821 15.4242 27.3095 14.1328C27.2368 12.6328 26.8946 11.3016 25.7978 10.2047C24.6985 9.10548 23.3696 8.76564 21.8696 8.69298C20.5759 8.62033 19.2939 8.63204 18.0025 8.63204C16.7087 8.63204 15.4267 8.62033 14.1353 8.69298C12.6353 8.76564 11.304 9.10783 10.2071 10.2047C9.10792 11.3039 8.76808 12.6328 8.69542 14.1328C8.62277 15.4266 8.63449 16.7086 8.63449 18C8.63449 19.2914 8.62277 20.5758 8.69542 21.8672C8.76808 23.3672 9.11027 24.6985 10.2071 25.7953C11.3064 26.8945 12.6353 27.2344 14.1353 27.307C15.429 27.3797 16.711 27.368 18.0025 27.368C19.2962 27.368 20.5782 27.3797 21.8696 27.307C23.3696 27.2344 24.7009 26.8922 25.7978 25.7953C26.897 24.6961 27.2368 23.3672 27.3095 21.8672C27.3845 20.5758 27.3704 19.2938 27.3704 18ZM18.0001 22.807C15.34 22.807 13.1931 20.6602 13.1931 18C13.1931 15.3399 15.34 13.193 18.0001 13.193C20.6603 13.193 22.8071 15.3399 22.8071 18C22.8071 20.6602 20.6603 22.807 18.0001 22.807ZM23.004 14.1188C22.3829 14.1188 21.8814 13.6172 21.8814 12.9961C21.8814 12.375 22.3829 11.8735 23.004 11.8735C23.6251 11.8735 24.1267 12.375 24.1267 12.9961C24.1269 13.1436 24.0979 13.2897 24.0416 13.4259C23.9852 13.5622 23.9026 13.6861 23.7983 13.7904C23.694 13.8946 23.5701 13.9773 23.4339 14.0337C23.2976 14.09 23.1515 14.1189 23.004 14.1188Z" fill="white"/>
<circle cx="18" cy="18" r="17" stroke="white" stroke-width="2"/>
</svg>
