<svg width="12" height="11" viewBox="0 0 12 11" fill="none" xmlns="http://www.w3.org/2000/svg">
<path d="M4.808 11H3.808V12H4.808V11ZM4.808 0.199999V-0.800001H3.808V0.199999H4.808ZM7.376 0.199999H8.376V-0.800001H7.376V0.199999ZM7.376 11V12H8.376V11H7.376ZM0.56 6.8H-0.44V7.8H0.56V6.8ZM0.56 4.4V3.4H-0.44V4.4H0.56ZM11.624 4.4H12.624V3.4H11.624V4.4ZM11.624 6.8V7.8H12.624V6.8H11.624ZM5.808 11V0.199999H3.808V11H5.808ZM4.808 1.2H7.376V-0.800001H4.808V1.2ZM6.376 0.199999V11H8.376V0.199999H6.376ZM7.376 10H4.808V12H7.376V10ZM1.56 6.8V4.4H-0.44V6.8H1.56ZM0.56 5.4H11.624V3.4H0.56V5.4ZM10.624 4.4V6.8H12.624V4.4H10.624ZM11.624 5.8H0.56V7.8H11.624V5.8Z" fill="white"/>
</svg>
