<svg width="30" height="30" viewBox="0 0 30 30" fill="none" xmlns="http://www.w3.org/2000/svg">
<path d="M23.7834 9.09098L18.4938 14.6258L23.9013 19.7938L19.9797 23.8972L14.5722 18.7292L9.31291 24.2322L5.43219 20.5233L10.6914 15.0203L5.28387 9.85229L9.2055 5.74891L14.6131 10.9169L19.9027 5.38215L23.7834 9.09098Z" fill="white"/>
<path d="M23.7834 9.09098L24.5064 9.78189L25.1973 9.05896L24.4743 8.36804L23.7834 9.09098ZM18.4938 14.6258L17.7709 13.9349L17.0799 14.6578L17.8029 15.3487L18.4938 14.6258ZM23.9013 19.7938L24.6243 20.4847L25.3152 19.7618L24.5923 19.0709L23.9013 19.7938ZM19.9797 23.8972L19.2888 24.6201L20.0117 25.3111L20.7027 24.5881L19.9797 23.8972ZM14.5722 18.7292L15.2631 18.0062L14.5401 17.3153L13.8492 18.0383L14.5722 18.7292ZM9.31291 24.2322L8.622 24.9551L9.34493 25.646L10.0358 24.9231L9.31291 24.2322ZM5.43219 20.5233L4.70925 19.8324L4.01834 20.5553L4.74127 21.2463L5.43219 20.5233ZM10.6914 15.0203L11.4144 15.7112L12.1053 14.9883L11.3823 14.2974L10.6914 15.0203ZM5.28387 9.85229L4.56093 9.16138L3.87002 9.88431L4.59296 10.5752L5.28387 9.85229ZM9.2055 5.74891L9.89642 5.02597L9.17348 4.33505L8.48257 5.05799L9.2055 5.74891ZM14.6131 10.9169L13.9222 11.6399L14.6451 12.3308L15.336 11.6079L14.6131 10.9169ZM19.9027 5.38215L20.5936 4.65921L19.8707 3.9683L19.1798 4.69123L19.9027 5.38215ZM23.0605 8.40006L17.7709 13.9349L19.2167 15.3167L24.5064 9.78189L23.0605 8.40006ZM17.8029 15.3487L23.2104 20.5168L24.5923 19.0709L19.1847 13.9028L17.8029 15.3487ZM23.1784 19.1029L19.2568 23.2063L20.7027 24.5881L24.6243 20.4847L23.1784 19.1029ZM20.6706 23.1743L15.2631 18.0062L13.8812 19.4521L19.2888 24.6201L20.6706 23.1743ZM13.8492 18.0383L8.58997 23.5412L10.0358 24.9231L15.2951 19.4201L13.8492 18.0383ZM10.0038 23.5092L6.1231 19.8004L4.74127 21.2463L8.622 24.9551L10.0038 23.5092ZM6.15513 21.2142L11.4144 15.7112L9.9685 14.3294L4.70925 19.8324L6.15513 21.2142ZM11.3823 14.2974L5.97478 9.12935L4.59296 10.5752L10.0005 15.7433L11.3823 14.2974ZM6.00681 10.5432L9.92844 6.43982L8.48257 5.05799L4.56093 9.16138L6.00681 10.5432ZM8.51459 6.47184L13.9222 11.6399L15.304 10.194L9.89642 5.02597L8.51459 6.47184ZM15.336 11.6079L20.6256 6.07306L19.1798 4.69123L13.8901 10.226L15.336 11.6079ZM19.2118 6.10508L23.0925 9.81392L24.4743 8.36804L20.5936 4.65921L19.2118 6.10508Z" fill="white"/>
</svg>
