<svg width="22" height="21" viewBox="0 0 22 21" fill="none" xmlns="http://www.w3.org/2000/svg">
<path d="M21.0021 13.284V14.284H22.0021V13.284H21.0021ZM13.3461 13.284V12.284H12.3461V13.284H13.3461ZM13.3461 20.764V21.764H14.3461V20.764H13.3461ZM7.67008 20.764H6.67008V21.764H7.67008V20.764ZM7.67008 13.284H8.67008V12.284H7.67008V13.284ZM0.0580782 13.284H-0.941922V14.284H0.0580782V13.284ZM0.0580782 7.916V6.916H-0.941922V7.916H0.0580782ZM7.67008 7.916V8.916H8.67008V7.916H7.67008ZM7.67008 0.435999V-0.564001H6.67008V0.435999H7.67008ZM13.3461 0.435999H14.3461V-0.564001H13.3461V0.435999ZM13.3461 7.916H12.3461V8.916H13.3461V7.916ZM21.0021 7.916H22.0021V6.916H21.0021V7.916ZM21.0021 12.284H13.3461V14.284H21.0021V12.284ZM12.3461 13.284V20.764H14.3461V13.284H12.3461ZM13.3461 19.764H7.67008V21.764H13.3461V19.764ZM8.67008 20.764V13.284H6.67008V20.764H8.67008ZM7.67008 12.284H0.0580782V14.284H7.67008V12.284ZM1.05808 13.284V7.916H-0.941922V13.284H1.05808ZM0.0580782 8.916H7.67008V6.916H0.0580782V8.916ZM8.67008 7.916V0.435999H6.67008V7.916H8.67008ZM7.67008 1.436H13.3461V-0.564001H7.67008V1.436ZM12.3461 0.435999V7.916H14.3461V0.435999H12.3461ZM13.3461 8.916H21.0021V6.916H13.3461V8.916ZM20.0021 7.916V13.284H22.0021V7.916H20.0021Z" fill="white"/>
</svg>
