<svg width="36" height="36" viewBox="0 0 36 36" fill="none" xmlns="http://www.w3.org/2000/svg">
<g clip-path="url(#clip0_81_218)">
<path fill-rule="evenodd" clip-rule="evenodd" d="M29.45 11.948C29.616 11.402 29.45 11 28.655 11H26.03C25.362 11 25.054 11.347 24.887 11.73C24.887 11.73 23.552 14.926 21.661 17.002C21.049 17.604 20.771 17.795 20.437 17.795C20.27 17.795 20.019 17.604 20.019 17.057V11.948C20.019 11.292 19.835 11 19.279 11H15.151C14.734 11 14.483 11.304 14.483 11.593C14.483 12.214 15.429 12.358 15.526 14.106V17.904C15.526 18.737 15.373 18.888 15.039 18.888C14.149 18.888 11.984 15.677 10.699 12.003C10.45 11.288 10.198 11 9.527 11H6.9C6.15 11 6 11.347 6 11.73C6 12.412 6.89 15.8 10.145 20.281C12.315 23.341 15.37 25 18.153 25C19.822 25 20.028 24.632 20.028 23.997V21.684C20.028 20.947 20.186 20.8 20.715 20.8C21.105 20.8 21.772 20.992 23.33 22.467C25.11 24.216 25.403 25 26.405 25H29.03C29.78 25 30.156 24.632 29.94 23.904C29.702 23.18 28.852 22.129 27.725 20.882C27.113 20.172 26.195 19.407 25.916 19.024C25.527 18.533 25.638 18.314 25.916 17.877C25.916 17.877 29.116 13.451 29.449 11.948H29.45Z" fill="white"/>
</g>
<circle cx="18" cy="18" r="17" stroke="white" stroke-width="2"/>
<defs>
<clipPath id="clip0_81_218">
<rect width="24" height="24" fill="white" transform="translate(6 6)"/>
</clipPath>
</defs>
</svg>
