<svg width="16" height="16" viewBox="0 0 16 16" fill="none" xmlns="http://www.w3.org/2000/svg">
<rect width="16" height="16" fill="white"/>
<path fill-rule="evenodd" clip-rule="evenodd" d="M4 3.72169L4.27043 7.97421L11.6394 8L12 3.72169L9.769 5.91237L8.0338 3L6.27606 5.91237L4 3.72169Z" fill="#B38D68"/>
<path fill-rule="evenodd" clip-rule="evenodd" d="M13.2394 5H13.2394C12.7997 5 12.4221 5.46341 12.4003 6.02995L12.2786 8.83352L3.69189 8.84674V8.84739L3.59971 6.02995C3.58125 5.46324 3.20029 5 2.76063 5H2.76059C2.32094 5 1.97914 5.46341 2.00099 6.02995L2.26986 13H3.86858L3.8344 12.1137H12.1656L12.1314 13H13.7301L13.999 6.02995C14.0209 5.46341 13.6791 5 13.2394 5Z" fill="#B38D68"/>
<path d="M9.27224 10H6.72776C5.77355 10 5 10.2239 5 10.5C5 10.7761 5.77355 11 6.72776 11H9.27224C10.2265 11 11 10.7761 11 10.5C11 10.2239 10.2265 10 9.27224 10Z" fill="#1D2B38"/>
</svg>
